<?xml version="1.0" encoding="UTF-8" standalone="no"?><!DOCTYPE svg PUBLIC "-//W3C//DTD SVG 1.1//EN" "http://www.w3.org/Graphics/SVG/1.1/DTD/svg11.dtd"><svg width="100%" height="100%" viewBox="0 0 32 32" version="1.1" xmlns="http://www.w3.org/2000/svg" xmlns:xlink="http://www.w3.org/1999/xlink" xml:space="preserve" xmlns:serif="http://www.serif.com/" style="fill-rule:evenodd;clip-rule:evenodd;stroke-linejoin:round;stroke-miterlimit:2;"><path d="M18.172,11.171c0.082,0.208 0.253,0.369 0.465,0.438c1.794,0.585 3.272,1.873 4.108,3.537c0.101,0.2 0.285,0.345 0.503,0.395c0.516,0.117 1.052,0.18 1.603,0.18c2.224,-0 4.213,-1.014 5.551,-2.588c0.009,-0.011 0.017,-0.021 0.025,-0.032c0.356,-0.466 0.4,-1.099 0.113,-1.61c-0.287,-0.511 -0.85,-0.803 -1.433,-0.743c-0.001,0 -0.002,0 -0.004,0c-0.194,0.021 -0.391,0.032 -0.59,0.032c-3.007,0 -5.447,-2.441 -5.447,-5.447c-0,-0.448 0.053,-0.884 0.133,-1.306c0.129,-0.567 -0.079,-1.141 -0.529,-1.483c-0.457,-0.347 -1.076,-0.391 -1.577,-0.11c-0.01,0.005 -0.02,0.011 -0.03,0.018c-2.033,1.267 -3.387,3.523 -3.387,6.093c-0,0.927 0.176,1.813 0.496,2.626Z" style="fill:url(#_Linear1);"/><path d="M9.247,13.74l-0.029,-0c-4.41,-0 -7.99,3.58 -7.99,7.99c-0,2.943 1.555,7.991 7.511,7.991c15.447,-0 15.447,-0 15.447,-0c2.132,-0 3.759,-0.752 4.861,-1.936c1.099,-1.18 1.681,-2.806 1.681,-4.607c-0,0 -0,0 -0,0c-0,-3.394 -2.585,-6.185 -5.895,-6.51c-0.76,-3.931 -4.223,-6.903 -8.374,-6.903c-3.033,-0 -5.699,1.586 -7.212,3.975Z" style="fill:url(#_Linear2);"/><path d="M14.783,16.486l-1.052,1.429c-0.001,0.002 -0.003,0.003 -0.006,0.004l-1.683,0.559c-0.457,0.151 -0.814,0.51 -0.962,0.967c-0.148,0.457 -0.071,0.957 0.209,1.348l1.034,1.442c0.001,0.002 0.002,0.004 0.002,0.006l0.011,1.774c0.003,0.481 0.235,0.931 0.623,1.214c0.389,0.282 0.889,0.363 1.347,0.217l1.69,-0.537c0.003,-0.001 0.005,-0.001 0.007,-0l1.691,0.537c0.458,0.146 0.958,0.065 1.347,-0.217c0.388,-0.283 0.62,-0.733 0.623,-1.214l0.011,-1.774c-0,-0.002 0.001,-0.004 0.002,-0.006l1.034,-1.442c0.28,-0.391 0.357,-0.891 0.209,-1.348c-0.148,-0.457 -0.505,-0.816 -0.962,-0.967l-1.683,-0.559c-0.003,-0.001 -0.005,-0.002 -0.006,-0.004l-1.052,-1.429c-0.285,-0.387 -0.736,-0.616 -1.217,-0.616c-0.481,0 -0.932,0.229 -1.217,0.616Z" style="fill:url(#_Linear3);"/><defs><linearGradient id="_Linear1" x1="0" y1="0" x2="1" y2="0" gradientUnits="userSpaceOnUse" gradientTransform="matrix(-5.79758,8,-8,-5.79758,23.1977,10.5)"><stop offset="0" style="stop-color:#fcb64d;stop-opacity:1"/><stop offset="1" style="stop-color:#d47f00;stop-opacity:1"/></linearGradient><linearGradient id="_Linear2" x1="0" y1="0" x2="1" y2="0" gradientUnits="userSpaceOnUse" gradientTransform="matrix(1.88128e-15,30.7236,-30.7236,1.88128e-15,20.53,24)"><stop offset="0" style="stop-color:#e2f4fd;stop-opacity:1"/><stop offset="1" style="stop-color:#4dc4ff;stop-opacity:1"/></linearGradient><linearGradient id="_Linear3" x1="0" y1="0" x2="1" y2="0" gradientUnits="userSpaceOnUse" gradientTransform="matrix(1.02814e-15,16.7909,-16.7909,1.02814e-15,17.4002,22.2091)"><stop offset="0" style="stop-color:#ffcb29;stop-opacity:1"/><stop offset="1" style="stop-color:#c99d00;stop-opacity:1"/></linearGradient></defs></svg>