<?xml version="1.0" encoding="UTF-8" standalone="no"?><!DOCTYPE svg PUBLIC "-//W3C//DTD SVG 1.1//EN" "http://www.w3.org/Graphics/SVG/1.1/DTD/svg11.dtd"><svg width="100%" height="100%" viewBox="0 0 32 32" version="1.1" xmlns="http://www.w3.org/2000/svg" xmlns:xlink="http://www.w3.org/1999/xlink" xml:space="preserve" xmlns:serif="http://www.serif.com/" style="fill-rule:evenodd;clip-rule:evenodd;stroke-linejoin:round;stroke-miterlimit:2;"><path d="M18.201,11.171c0.082,0.208 0.253,0.369 0.466,0.438c1.793,0.585 3.271,1.873 4.107,3.537c0.101,0.2 0.285,0.345 0.503,0.395c0.516,0.117 1.052,0.18 1.603,0.18c2.224,-0 4.213,-1.014 5.552,-2.588c0.008,-0.011 0.017,-0.021 0.025,-0.032c0.355,-0.466 0.399,-1.099 0.112,-1.61c-0.287,-0.511 -0.85,-0.803 -1.433,-0.743c-0.001,0 -0.002,0 -0.003,0c-0.194,0.021 -0.391,0.032 -0.591,0.032c-3.006,0 -5.447,-2.441 -5.447,-5.447c-0,-0.448 0.054,-0.884 0.134,-1.306c0.128,-0.567 -0.08,-1.141 -0.53,-1.483c-0.457,-0.347 -1.076,-0.391 -1.576,-0.11c-0.01,0.005 -0.021,0.011 -0.03,0.018c-2.034,1.267 -3.388,3.523 -3.388,6.093c-0,0.927 0.176,1.813 0.496,2.626Z" style="fill:url(#_Linear1);"/><path d="M9.277,13.74l-0.029,-0c-4.41,-0 -7.991,3.58 -7.991,7.99c0,2.943 1.555,7.991 7.512,7.991c15.446,-0 15.446,-0 15.446,-0c2.132,-0 3.759,-0.752 4.861,-1.936c1.099,-1.18 1.681,-2.806 1.681,-4.607c0,0 0,0 0,0c0,-3.394 -2.585,-6.185 -5.894,-6.51c-0.761,-3.931 -4.223,-6.903 -8.375,-6.903c-3.033,-0 -5.699,1.586 -7.211,3.975Z" style="fill:url(#_Linear2);"/><defs><linearGradient id="_Linear1" x1="0" y1="0" x2="1" y2="0" gradientUnits="userSpaceOnUse" gradientTransform="matrix(-5.11884,6,-6,-5.11884,23.6188,10.5)"><stop offset="0" style="stop-color:#fcb64d;stop-opacity:1"/><stop offset="1" style="stop-color:#d47f00;stop-opacity:1"/></linearGradient><linearGradient id="_Linear2" x1="0" y1="0" x2="1" y2="0" gradientUnits="userSpaceOnUse" gradientTransform="matrix(1.71451e-15,28,-28,1.71451e-15,17.0658,24)"><stop offset="0" style="stop-color:#e2f4fd;stop-opacity:1"/><stop offset="1" style="stop-color:#4dc4ff;stop-opacity:1"/></linearGradient></defs></svg>