<?xml version="1.0" encoding="UTF-8" standalone="no"?><!DOCTYPE svg PUBLIC "-//W3C//DTD SVG 1.1//EN" "http://www.w3.org/Graphics/SVG/1.1/DTD/svg11.dtd"><svg width="100%" height="100%" viewBox="0 0 32 32" version="1.1" xmlns="http://www.w3.org/2000/svg" xmlns:xlink="http://www.w3.org/1999/xlink" xml:space="preserve" xmlns:serif="http://www.serif.com/" style="fill-rule:evenodd;clip-rule:evenodd;stroke-linejoin:round;stroke-miterlimit:2;"><path d="M29.25,4.026c-0,0.323 -0.128,0.632 -0.356,0.86c-0.228,0.228 -0.538,0.356 -0.86,0.356l-8.781,0c-0.414,0 -0.75,0.337 -0.75,0.75c-0,0.414 0.336,0.75 0.75,0.75c-0,0 6.174,0 8.781,0c0.72,0 1.411,-0.286 1.92,-0.795c0.51,-0.509 0.796,-1.2 0.796,-1.921c-0,-0.72 -0.286,-1.411 -0.796,-1.92c-0.509,-0.509 -1.2,-0.796 -1.92,-0.796c-0.414,0 -0.75,0.337 -0.75,0.75c-0,0.414 0.336,0.75 0.75,0.75c0.322,0 0.632,0.129 0.86,0.357c0.228,0.228 0.356,0.537 0.356,0.859Z" style="fill:url(#_Linear1);"/><path d="M1.25,7.382c0,-0 0,0.422 0,0.008c0,0.721 0.286,1.411 0.796,1.921c0.509,0.509 1.2,0.795 1.92,0.795c2.607,0 8.781,0 8.781,0c0.414,0 0.75,-0.336 0.75,-0.75c0,-0.414 -0.336,-0.75 -0.75,-0.75c0,0 -6.174,0 -8.781,0c-0.322,0 -0.632,-0.128 -0.86,-0.356c-0.228,-0.228 -0.356,-0.537 -0.356,-0.86l0,-0.002c0,-0.322 0.128,-0.63 0.356,-0.858c0.228,-0.228 0.538,-0.356 0.86,-0.356c0.414,0 0.75,-0.336 0.75,-0.75c0,-0.414 -0.336,-0.75 -0.75,-0.75c-0.72,0 -1.411,0.286 -1.92,0.796c-0.508,0.507 -0.794,1.195 -0.796,1.912" style="fill:url(#_Linear2);"/><path d="M23.692,1.31c-1.677,0 -6.327,0 -6.327,0c-0.414,0 -0.75,0.337 -0.75,0.75c0,0.414 0.336,0.75 0.75,0.75c0,0 4.65,0 6.327,0c0.414,0 0.75,-0.336 0.75,-0.75c0,-0.413 -0.336,-0.75 -0.75,-0.75Z" style="fill:url(#_Linear3);"/><path d="M8.308,6.174c1.677,0 6.327,0 6.327,0c0.414,0 0.75,-0.336 0.75,-0.75c-0,-0.414 -0.336,-0.75 -0.75,-0.75c-0,0 -4.65,0 -6.327,0c-0.414,0 -0.75,0.336 -0.75,0.75c-0,0.414 0.336,0.75 0.75,0.75Z" style="fill:url(#_Linear4);"/><path d="M24.826,13.372c0,0.136 -0.054,0.267 -0.15,0.363c-0.097,0.097 -0.228,0.151 -0.364,0.151l-6.327,0c-0.414,0 -0.75,0.336 -0.75,0.75c-0,0.414 0.336,0.75 0.75,0.75c-0,0 4.65,0 6.327,0c0.534,0 1.047,-0.212 1.424,-0.59c0.378,-0.378 0.59,-0.89 0.59,-1.424c0,-0.535 -0.212,-1.047 -0.59,-1.425c-0.377,-0.378 -0.89,-0.59 -1.424,-0.59c-0.414,-0 -0.75,0.336 -0.75,0.75c-0,0.414 0.336,0.75 0.75,0.75c0.136,-0 0.267,0.054 0.364,0.151c0.096,0.096 0.15,0.227 0.15,0.364Z" style="fill:url(#_Linear5);"/><path d="M28.275,8.506l-12.629,0c-0.414,0 -0.75,0.336 -0.75,0.75c-0,0.414 0.336,0.75 0.75,0.75l12.629,0c0.414,0 0.75,-0.336 0.75,-0.75c0,-0.414 -0.336,-0.75 -0.75,-0.75Z" style="fill:url(#_Linear6);"/><path d="M3.725,13.37l12.629,-0c0.414,-0 0.75,-0.336 0.75,-0.75c0,-0.414 -0.336,-0.75 -0.75,-0.75l-12.629,-0c-0.414,-0 -0.75,0.336 -0.75,0.75c-0,0.414 0.336,0.75 0.75,0.75Z" style="fill:url(#_Linear7);"/><path d="M19.046,25.7l0.042,0.004c-0.609,1.356 -1.147,2.643 -1.254,2.9c-0.373,0.658 -0.164,1.511 0.49,1.923c0.654,0.413 1.515,0.234 1.953,-0.395c0.231,-0.255 1.583,-1.767 2.735,-3.166c0.962,-1.167 1.748,-2.226 1.748,-2.226c0.011,-0.015 0.022,-0.03 0.032,-0.046c0.458,-0.727 0.485,-1.645 0.07,-2.397c-0.41,-0.743 -1.187,-1.208 -2.035,-1.218c-0.079,-0.005 -0.391,-0.023 -0.805,-0.034c0.239,-1.06 0.435,-2.023 0.482,-2.257c0.245,-0.714 -0.116,-1.511 -0.832,-1.798c-0.716,-0.286 -1.527,0.043 -1.846,0.735c-0.167,0.264 -1.006,1.603 -1.717,2.832c-0.604,1.042 -1.087,1.969 -1.087,1.969c-0.011,0.023 -0.022,0.045 -0.031,0.069c-0.279,0.697 -0.194,1.488 0.227,2.111c0.413,0.609 1.095,0.979 1.828,0.994Z" style="fill:url(#_Linear8);"/><path d="M9.083,25.7l0.042,0.004c-0.61,1.356 -1.148,2.643 -1.255,2.9c-0.373,0.658 -0.164,1.511 0.49,1.923c0.655,0.413 1.516,0.234 1.954,-0.395c0.23,-0.255 1.582,-1.767 2.735,-3.166c0.961,-1.167 1.747,-2.226 1.747,-2.226c0.011,-0.015 0.022,-0.03 0.032,-0.046c0.458,-0.727 0.485,-1.645 0.071,-2.397c-0.41,-0.743 -1.188,-1.208 -2.035,-1.218c-0.08,-0.005 -0.392,-0.023 -0.806,-0.034c0.239,-1.06 0.435,-2.023 0.482,-2.257c0.245,-0.714 -0.116,-1.511 -0.832,-1.798c-0.716,-0.286 -1.527,0.043 -1.846,0.735c-0.166,0.264 -1.006,1.603 -1.717,2.832c-0.604,1.042 -1.087,1.969 -1.087,1.969c-0.011,0.023 -0.022,0.045 -0.031,0.069c-0.279,0.697 -0.194,1.488 0.227,2.111c0.413,0.609 1.095,0.979 1.829,0.994Z" style="fill:url(#_Linear9);"/><defs><linearGradient id="_Linear1" x1="0" y1="0" x2="1" y2="0" gradientUnits="userSpaceOnUse" gradientTransform="matrix(1.08337e-15,17.6927,-17.6927,1.08337e-15,15.7071,9.55728)"><stop offset="0" style="stop-color:#6dbeff;stop-opacity:1"/><stop offset="1" style="stop-color:#0085f0;stop-opacity:1"/></linearGradient><linearGradient id="_Linear2" x1="0" y1="0" x2="1" y2="0" gradientUnits="userSpaceOnUse" gradientTransform="matrix(1.08337e-15,17.6927,-17.6927,1.08337e-15,15.7071,9.55728)"><stop offset="0" style="stop-color:#6dbeff;stop-opacity:1"/><stop offset="1" style="stop-color:#0085f0;stop-opacity:1"/></linearGradient><linearGradient id="_Linear3" x1="0" y1="0" x2="1" y2="0" gradientUnits="userSpaceOnUse" gradientTransform="matrix(1.08337e-15,17.6927,-17.6927,1.08337e-15,15.7071,9.55728)"><stop offset="0" style="stop-color:#6dbeff;stop-opacity:1"/><stop offset="1" style="stop-color:#0085f0;stop-opacity:1"/></linearGradient><linearGradient id="_Linear4" x1="0" y1="0" x2="1" y2="0" gradientUnits="userSpaceOnUse" gradientTransform="matrix(1.08337e-15,17.6927,-17.6927,1.08337e-15,15.7071,9.55728)"><stop offset="0" style="stop-color:#6dbeff;stop-opacity:1"/><stop offset="1" style="stop-color:#0085f0;stop-opacity:1"/></linearGradient><linearGradient id="_Linear5" x1="0" y1="0" x2="1" y2="0" gradientUnits="userSpaceOnUse" gradientTransform="matrix(1.08337e-15,17.6927,-17.6927,1.08337e-15,15.7071,9.55728)"><stop offset="0" style="stop-color:#6dbeff;stop-opacity:1"/><stop offset="1" style="stop-color:#0085f0;stop-opacity:1"/></linearGradient><linearGradient id="_Linear6" x1="0" y1="0" x2="1" y2="0" gradientUnits="userSpaceOnUse" gradientTransform="matrix(1.08337e-15,17.6927,-17.6927,1.08337e-15,15.7071,9.55728)"><stop offset="0" style="stop-color:#6dbeff;stop-opacity:1"/><stop offset="1" style="stop-color:#0085f0;stop-opacity:1"/></linearGradient><linearGradient id="_Linear7" x1="0" y1="0" x2="1" y2="0" gradientUnits="userSpaceOnUse" gradientTransform="matrix(1.08337e-15,17.6927,-17.6927,1.08337e-15,15.7071,9.55728)"><stop offset="0" style="stop-color:#6dbeff;stop-opacity:1"/><stop offset="1" style="stop-color:#0085f0;stop-opacity:1"/></linearGradient><linearGradient id="_Linear8" x1="0" y1="0" x2="1" y2="0" gradientUnits="userSpaceOnUse" gradientTransform="matrix(1.7712e-15,28.926,-28.926,1.7712e-15,15.3847,23)"><stop offset="0" style="stop-color:#fec110;stop-opacity:1"/><stop offset="1" style="stop-color:#a57b00;stop-opacity:1"/></linearGradient><linearGradient id="_Linear9" x1="0" y1="0" x2="1" y2="0" gradientUnits="userSpaceOnUse" gradientTransform="matrix(9.22471e-16,15.0651,-15.0651,9.22471e-16,17.7526,26.2729)"><stop offset="0" style="stop-color:#fec110;stop-opacity:1"/><stop offset="1" style="stop-color:#a57b00;stop-opacity:1"/></linearGradient></defs></svg>