<?xml version="1.0" encoding="UTF-8" standalone="no"?><!DOCTYPE svg PUBLIC "-//W3C//DTD SVG 1.1//EN" "http://www.w3.org/Graphics/SVG/1.1/DTD/svg11.dtd"><svg width="100%" height="100%" viewBox="0 0 32 32" version="1.1" xmlns="http://www.w3.org/2000/svg" xmlns:xlink="http://www.w3.org/1999/xlink" xml:space="preserve" xmlns:serif="http://www.serif.com/" style="fill-rule:evenodd;clip-rule:evenodd;stroke-linejoin:round;stroke-miterlimit:2;"><path d="M18.581,2l-0,1.057c-0,0.414 0.336,0.75 0.75,0.75c0.414,-0 0.75,-0.336 0.75,-0.75l-0,-1.057c-0,-0.414 -0.336,-0.75 -0.75,-0.75c-0.414,-0 -0.75,0.336 -0.75,0.75Z" style="fill:url(#_Linear1);"/><path d="M23.389,3.37l-0.748,0.748c-0.293,0.293 -0.293,0.768 -0,1.061c0.292,0.293 0.768,0.293 1.06,-0l0.748,-0.748c0.293,-0.293 0.293,-0.768 0,-1.061c-0.292,-0.293 -0.768,-0.293 -1.06,0Z" style="fill:url(#_Linear2);"/><path d="M25.819,7.739l-1.057,-0c-0.413,-0 -0.75,0.336 -0.75,0.75c0,0.414 0.337,0.75 0.75,0.75l1.057,-0c0.414,-0 0.75,-0.336 0.75,-0.75c0,-0.414 -0.336,-0.75 -0.75,-0.75Z" style="fill:url(#_Linear3);"/><path d="M14.212,4.431l0.748,0.748c0.293,0.293 0.768,0.293 1.061,-0c0.293,-0.293 0.293,-0.768 -0,-1.061l-0.748,-0.748c-0.293,-0.293 -0.768,-0.293 -1.061,0c-0.293,0.293 -0.293,0.768 0,1.061Z" style="fill:url(#_Linear4);"/><path d="M14.878,8.788c0.012,0.207 0.11,0.4 0.27,0.533c0.161,0.132 0.369,0.193 0.575,0.166c0.2,-0.026 0.404,-0.04 0.612,-0.04c1.842,0 3.438,1.062 4.211,2.606c0.093,0.186 0.259,0.325 0.459,0.383c0.199,0.059 0.414,0.032 0.593,-0.074c1.313,-0.776 2.194,-2.207 2.194,-3.841c-0,-2.462 -1.999,-4.461 -4.461,-4.461c-2.462,-0 -4.461,1.999 -4.461,4.461c-0,0.089 0.002,0.178 0.008,0.267Z" style="fill:url(#_Linear5);"/><path d="M11.155,10.736c-3.168,0.054 -5.724,2.644 -5.724,5.826c-0,2.148 1.142,5.827 5.491,5.827c10.831,-0 10.831,-0 10.831,-0c1.568,-0 2.762,-0.558 3.572,-1.429c0.808,-0.867 1.239,-2.06 1.239,-3.383c0,0 0,0 0,0c0,-2.44 -1.816,-4.456 -4.171,-4.769c-0.615,-2.779 -3.095,-4.861 -6.058,-4.861c-2.163,0 -4.069,1.109 -5.18,2.789Z" style="fill:url(#_Linear6);"/><path d="M9.373,22.986c-0.451,0 -0.93,0.276 -1.306,0.814c-0.564,0.81 -0.947,2.263 -0.947,2.943c-0,1.244 1.01,2.253 2.253,2.253c1.244,0 2.253,-1.009 2.253,-2.253c0,-0.68 -0.382,-2.133 -0.947,-2.943c-0.375,-0.538 -0.854,-0.814 -1.306,-0.814Z" style="fill:url(#_Linear7);"/><path d="M15.985,25.024c-0.436,-0 -0.9,0.263 -1.262,0.783c-0.534,0.766 -0.896,2.141 -0.896,2.784c-0,1.192 0.967,2.159 2.158,2.159c1.192,-0 2.159,-0.967 2.159,-2.159c-0,-0.643 -0.362,-2.018 -0.896,-2.784c-0.362,-0.52 -0.827,-0.783 -1.263,-0.783Z" style="fill:url(#_Linear8);"/><path d="M22.685,22.687c-0.411,0 -0.852,0.244 -1.194,0.734c-0.486,0.698 -0.815,1.949 -0.815,2.534c-0,1.109 0.9,2.009 2.009,2.009c1.109,0 2.009,-0.9 2.009,-2.009c-0,-0.585 -0.329,-1.836 -0.816,-2.534c-0.341,-0.49 -0.782,-0.734 -1.193,-0.734Z" style="fill:url(#_Linear9);"/><defs><linearGradient id="_Linear1" x1="0" y1="0" x2="1" y2="0" gradientUnits="userSpaceOnUse" gradientTransform="matrix(-4.20019,8.9786,-8.9786,-4.20019,20.0807,7)"><stop offset="0" style="stop-color:#fcd935;stop-opacity:1"/><stop offset="1" style="stop-color:#c19f00;stop-opacity:1"/></linearGradient><linearGradient id="_Linear2" x1="0" y1="0" x2="1" y2="0" gradientUnits="userSpaceOnUse" gradientTransform="matrix(-4.20019,8.9786,-8.9786,-4.20019,20.0807,7)"><stop offset="0" style="stop-color:#fcd935;stop-opacity:1"/><stop offset="1" style="stop-color:#c19f00;stop-opacity:1"/></linearGradient><linearGradient id="_Linear3" x1="0" y1="0" x2="1" y2="0" gradientUnits="userSpaceOnUse" gradientTransform="matrix(-4.20019,8.9786,-8.9786,-4.20019,20.0807,7)"><stop offset="0" style="stop-color:#fcd935;stop-opacity:1"/><stop offset="1" style="stop-color:#c19f00;stop-opacity:1"/></linearGradient><linearGradient id="_Linear4" x1="0" y1="0" x2="1" y2="0" gradientUnits="userSpaceOnUse" gradientTransform="matrix(-4.20019,8.9786,-8.9786,-4.20019,20.0807,7)"><stop offset="0" style="stop-color:#fcd935;stop-opacity:1"/><stop offset="1" style="stop-color:#c19f00;stop-opacity:1"/></linearGradient><linearGradient id="_Linear5" x1="0" y1="0" x2="1" y2="0" gradientUnits="userSpaceOnUse" gradientTransform="matrix(-4.20019,8.9786,-8.9786,-4.20019,20.0807,7)"><stop offset="0" style="stop-color:#fcd935;stop-opacity:1"/><stop offset="1" style="stop-color:#c19f00;stop-opacity:1"/></linearGradient><linearGradient id="_Linear6" x1="0" y1="0" x2="1" y2="0" gradientUnits="userSpaceOnUse" gradientTransform="matrix(1.45047e-15,23.6879,-23.6879,1.45047e-15,15.1165,16.3121)"><stop offset="0" style="stop-color:#e2f4fd;stop-opacity:1"/><stop offset="1" style="stop-color:#4dc4ff;stop-opacity:1"/></linearGradient><linearGradient id="_Linear7" x1="0" y1="0" x2="1" y2="0" gradientUnits="userSpaceOnUse" gradientTransform="matrix(5.20475e-16,8.5,-8.5,5.20475e-16,9.37321,26.5)"><stop offset="0" style="stop-color:#83d3f6;stop-opacity:1"/><stop offset="1" style="stop-color:#00aefb;stop-opacity:1"/></linearGradient><linearGradient id="_Linear8" x1="0" y1="0" x2="1" y2="0" gradientUnits="userSpaceOnUse" gradientTransform="matrix(5.02085e-16,8.19966,-8.19966,5.02085e-16,16.2404,28.3003)"><stop offset="0" style="stop-color:#83d3f6;stop-opacity:1"/><stop offset="1" style="stop-color:#00aefb;stop-opacity:1"/></linearGradient><linearGradient id="_Linear9" x1="0" y1="0" x2="1" y2="0" gradientUnits="userSpaceOnUse" gradientTransform="matrix(5.8929e-16,9.62384,-9.62384,5.8929e-16,22.6849,25.3762)"><stop offset="0" style="stop-color:#83d3f6;stop-opacity:1"/><stop offset="1" style="stop-color:#00aefb;stop-opacity:1"/></linearGradient></defs></svg>