<?xml version="1.0" encoding="UTF-8" standalone="no"?><!DOCTYPE svg PUBLIC "-//W3C//DTD SVG 1.1//EN" "http://www.w3.org/Graphics/SVG/1.1/DTD/svg11.dtd"><svg width="100%" height="100%" viewBox="0 0 32 32" version="1.1" xmlns="http://www.w3.org/2000/svg" xmlns:xlink="http://www.w3.org/1999/xlink" xml:space="preserve" xmlns:serif="http://www.serif.com/" style="fill-rule:evenodd;clip-rule:evenodd;stroke-linejoin:round;stroke-miterlimit:2;"><path d="M14.707,11.654c0.013,0.207 0.111,0.4 0.271,0.533c0.16,0.132 0.368,0.193 0.575,0.166c0.299,-0.039 0.604,-0.059 0.913,-0.059c2.753,-0 5.137,1.585 6.292,3.892c0.093,0.186 0.259,0.325 0.459,0.384c0.199,0.058 0.414,0.032 0.593,-0.074c1.778,-1.052 2.971,-2.99 2.971,-5.204c0,-3.335 -2.707,-6.042 -6.042,-6.042c-3.335,-0 -6.042,2.707 -6.042,6.042c-0,0.121 0.003,0.242 0.01,0.362Z" style="fill:url(#_Linear1);"/><path d="M9.254,14.769l-0.028,0c-4.41,0 -7.991,3.58 -7.991,7.991c0,2.943 1.555,7.99 7.512,7.99c15.446,-0 15.446,0 15.446,-0c2.132,-0 3.759,-0.752 4.861,-1.935c1.099,-1.181 1.681,-2.806 1.681,-4.607c0,-0 0,-0 0,-0c0,-3.395 -2.585,-6.186 -5.894,-6.511c-0.761,-3.931 -4.223,-6.903 -8.375,-6.903c-3.033,-0 -5.699,1.586 -7.212,3.975Z" style="fill:url(#_Linear2);"/><path d="M19.989,1.993l-0,1.507c-0,0.414 0.336,0.75 0.75,0.75c0.414,-0 0.75,-0.336 0.75,-0.75l-0,-1.507c-0,-0.414 -0.336,-0.75 -0.75,-0.75c-0.414,-0 -0.75,0.336 -0.75,0.75Z" style="fill:url(#_Linear3);"/><path d="M26.752,4.173l-1.067,1.066c-0.292,0.293 -0.292,0.768 0,1.061c0.293,0.293 0.768,0.293 1.061,0l1.067,-1.067c0.292,-0.292 0.292,-0.768 -0,-1.06c-0.293,-0.293 -0.768,-0.293 -1.061,-0Z" style="fill:url(#_Linear4);"/><path d="M29.993,10.496l-1.508,0c-0.414,0 -0.75,0.336 -0.75,0.75c0,0.414 0.336,0.75 0.75,0.75l1.508,0c0.414,0 0.75,-0.336 0.75,-0.75c-0,-0.414 -0.336,-0.75 -0.75,-0.75Z" style="fill:url(#_Linear5);"/><path d="M13.665,5.233l1.067,1.067c0.293,0.293 0.768,0.293 1.061,0c0.292,-0.293 0.292,-0.768 -0,-1.061l-1.067,-1.066c-0.293,-0.293 -0.768,-0.293 -1.061,-0c-0.292,0.292 -0.292,0.768 0,1.06Z" style="fill:url(#_Linear6);"/><path d="M16.657,17.138c-0.132,-0.239 -0.384,-0.388 -0.657,-0.388c-0.273,-0 -0.525,0.149 -0.657,0.388c-0,0 -1.255,2.284 -2.009,4.338c-0.351,0.957 -0.586,1.871 -0.586,2.522c-0,1.795 1.457,3.252 3.252,3.252c1.795,0 3.252,-1.457 3.252,-3.252c0,-0.651 -0.235,-1.565 -0.586,-2.522c-0.754,-2.054 -2.009,-4.338 -2.009,-4.338Z" style="fill:url(#_Linear7);"/><defs><linearGradient id="_Linear1" x1="0" y1="0" x2="1" y2="0" gradientUnits="userSpaceOnUse" gradientTransform="matrix(-4.76929,10.3749,-10.3749,-4.76929,21.489,10.1251)"><stop offset="0" style="stop-color:#fcd935;stop-opacity:1"/><stop offset="1" style="stop-color:#c19f00;stop-opacity:1"/></linearGradient><linearGradient id="_Linear2" x1="0" y1="0" x2="1" y2="0" gradientUnits="userSpaceOnUse" gradientTransform="matrix(2.25486e-15,36.8247,-36.8247,2.25486e-15,22.421,24.4174)"><stop offset="0" style="stop-color:#e2f4fd;stop-opacity:1"/><stop offset="1" style="stop-color:#4dc4ff;stop-opacity:1"/></linearGradient><linearGradient id="_Linear3" x1="0" y1="0" x2="1" y2="0" gradientUnits="userSpaceOnUse" gradientTransform="matrix(5.63022e-16,9.19484,-9.19484,5.63022e-16,20.739,2.74633)"><stop offset="0" style="stop-color:#fcd935;stop-opacity:1"/><stop offset="1" style="stop-color:#c19f00;stop-opacity:1"/></linearGradient><linearGradient id="_Linear4" x1="0" y1="0" x2="1" y2="0" gradientUnits="userSpaceOnUse" gradientTransform="matrix(-4.90441,4.90441,-4.90441,-4.90441,26.7812,5.25)"><stop offset="0" style="stop-color:#fcd935;stop-opacity:1"/><stop offset="1" style="stop-color:#c19f00;stop-opacity:1"/></linearGradient><linearGradient id="_Linear5" x1="0" y1="0" x2="1" y2="0" gradientUnits="userSpaceOnUse" gradientTransform="matrix(-7.7323,9.46934e-16,-9.46934e-16,-7.7323,29.4911,11)"><stop offset="0" style="stop-color:#fcd935;stop-opacity:1"/><stop offset="1" style="stop-color:#c19f00;stop-opacity:1"/></linearGradient><linearGradient id="_Linear6" x1="0" y1="0" x2="1" y2="0" gradientUnits="userSpaceOnUse" gradientTransform="matrix(6.30326,6.30326,-6.30326,6.30326,14.6967,5.23638)"><stop offset="0" style="stop-color:#fcd935;stop-opacity:1"/><stop offset="1" style="stop-color:#c19f00;stop-opacity:1"/></linearGradient><linearGradient id="_Linear7" x1="0" y1="0" x2="1" y2="0" gradientUnits="userSpaceOnUse" gradientTransform="matrix(9.49101e-16,15.5,-15.5,9.49101e-16,16.2404,24)"><stop offset="0" style="stop-color:#56c2ef;stop-opacity:1"/><stop offset="1" style="stop-color:#0094d1;stop-opacity:1"/></linearGradient></defs></svg>