<?xml version="1.0" encoding="UTF-8" standalone="no"?><!DOCTYPE svg PUBLIC "-//W3C//DTD SVG 1.1//EN" "http://www.w3.org/Graphics/SVG/1.1/DTD/svg11.dtd"><svg width="100%" height="100%" viewBox="0 0 32 32" version="1.1" xmlns="http://www.w3.org/2000/svg" xmlns:xlink="http://www.w3.org/1999/xlink" xml:space="preserve" xmlns:serif="http://www.serif.com/" style="fill-rule:evenodd;clip-rule:evenodd;stroke-linejoin:round;stroke-miterlimit:2;"><path d="M9.854,18.706c0.297,-3.137 2.942,-5.595 6.156,-5.595c3.213,0 5.857,2.455 6.156,5.59c0.039,0.412 0.405,0.715 0.818,0.675c0.412,-0.039 0.714,-0.406 0.675,-0.818c-0.372,-3.895 -3.657,-6.947 -7.649,-6.947c-3.994,0 -7.28,3.055 -7.649,6.954c-0.039,0.412 0.264,0.778 0.676,0.817c0.412,0.039 0.778,-0.264 0.817,-0.676Z" style="fill:url(#_Linear1);"/><path d="M6.859,19.031c0.14,-4.931 4.187,-8.891 9.151,-8.891c4.894,-0 8.897,3.848 9.143,8.681c0.022,0.414 0.374,0.732 0.788,0.711c0.413,-0.021 0.732,-0.374 0.71,-0.787c-0.286,-5.625 -4.945,-10.105 -10.641,-10.105c-5.778,-0 -10.488,4.609 -10.651,10.348c-0.011,0.414 0.315,0.759 0.729,0.771c0.413,0.012 0.759,-0.315 0.771,-0.728Z" style="fill:url(#_Linear2);"/><path d="M3.948,20.554c-0.043,-0.414 -0.065,-0.834 -0.065,-1.259c0,-6.693 5.434,-12.127 12.127,-12.127c6.693,0 12.127,5.434 12.127,12.127c0,0.43 -0.022,0.854 -0.066,1.272c-0.043,0.412 0.256,0.781 0.668,0.824c0.412,0.043 0.781,-0.256 0.824,-0.668c0.049,-0.469 0.074,-0.946 0.074,-1.428c0,-7.521 -6.106,-13.627 -13.627,-13.627c-7.521,0 -13.627,6.106 -13.627,13.627c0,0.477 0.025,0.949 0.073,1.413c0.042,0.412 0.411,0.712 0.823,0.669c0.412,-0.042 0.712,-0.411 0.669,-0.823Z" style="fill:url(#_Linear3);"/><path d="M4.748,19.308c-1.95,0.117 -3.498,1.738 -3.498,3.718c0,1.376 0.741,3.724 3.528,3.724c6.345,-0 6.345,0 6.345,-0c1.019,-0 1.793,-0.37 2.32,-0.936c0.524,-0.563 0.809,-1.335 0.809,-2.193l0,-0c0,-1.514 -1.074,-2.777 -2.502,-3.067c-0.463,-1.663 -1.991,-2.886 -3.801,-2.886c-1.317,0 -2.485,0.647 -3.201,1.64Z" style="fill:url(#_Linear4);"/><path d="M17.748,23.62c-0,0 -0,0.637 -0,0.001c-0,0.858 0.285,1.63 0.809,2.193c0.527,0.566 1.301,0.936 2.32,0.936c0,0 0,-0 6.345,-0c2.787,-0 3.528,-2.348 3.528,-3.724c-0,-1.98 -1.548,-3.601 -3.498,-3.718c-0.716,-0.993 -1.884,-1.64 -3.201,-1.64c-1.81,0 -3.337,1.222 -3.801,2.886c-1.428,0.29 -2.502,1.553 -2.502,3.066Z" style="fill:url(#_Linear5);"/><defs><linearGradient id="_Linear1" x1="0" y1="0" x2="1" y2="0" gradientUnits="userSpaceOnUse" gradientTransform="matrix(2.69126e-16,4.39516,-4.39516,2.69126e-16,22.5,17)"><stop offset="0" style="stop-color:#ffda44;stop-opacity:1"/><stop offset="1" style="stop-color:#cfa600;stop-opacity:1"/></linearGradient><linearGradient id="_Linear2" x1="0" y1="0" x2="1" y2="0" gradientUnits="userSpaceOnUse" gradientTransform="matrix(1.93298e-16,3.15679,-3.15679,1.93298e-16,25.625,17.4216)"><stop offset="0" style="stop-color:#ffaf46;stop-opacity:1"/><stop offset="1" style="stop-color:#d17700;stop-opacity:1"/></linearGradient><linearGradient id="_Linear3" x1="0" y1="0" x2="1" y2="0" gradientUnits="userSpaceOnUse" gradientTransform="matrix(2.95519e-16,4.8262,-4.8262,2.95519e-16,28.9972,18.1738)"><stop offset="0" style="stop-color:#ed1c24;stop-opacity:1"/><stop offset="1" style="stop-color:#a10006;stop-opacity:1"/></linearGradient><linearGradient id="_Linear4" x1="0" y1="0" x2="1" y2="0" gradientUnits="userSpaceOnUse" gradientTransform="matrix(1.46749e-15,23.966,-23.966,1.46749e-15,23,23.3444)"><stop offset="0" style="stop-color:#e2f4fd;stop-opacity:1"/><stop offset="1" style="stop-color:#4dc4ff;stop-opacity:1"/></linearGradient><linearGradient id="_Linear5" x1="0" y1="0" x2="1" y2="0" gradientUnits="userSpaceOnUse" gradientTransform="matrix(1.46749e-15,23.966,-23.966,1.46749e-15,23,23.3444)"><stop offset="0" style="stop-color:#e2f4fd;stop-opacity:1"/><stop offset="1" style="stop-color:#4dc4ff;stop-opacity:1"/></linearGradient></defs></svg>