<?xml version="1.0" encoding="UTF-8" standalone="no"?><!DOCTYPE svg PUBLIC "-//W3C//DTD SVG 1.1//EN" "http://www.w3.org/Graphics/SVG/1.1/DTD/svg11.dtd"><svg width="100%" height="100%" viewBox="0 0 32 32" version="1.1" xmlns="http://www.w3.org/2000/svg" xmlns:xlink="http://www.w3.org/1999/xlink" xml:space="preserve" xmlns:serif="http://www.serif.com/" style="fill-rule:evenodd;clip-rule:evenodd;stroke-linejoin:round;stroke-miterlimit:2;"><path d="M21.247,9.701c-1.95,0.117 -3.497,1.738 -3.497,3.717c0,1.376 0.741,3.724 3.527,3.724c6.344,-0 6.344,-0 6.344,-0c1.019,-0 1.793,-0.37 2.32,-0.936c0.524,-0.563 0.809,-1.335 0.809,-2.193l-0,-0c-0,-1.514 -1.074,-2.776 -2.502,-3.066c-0.463,-1.663 -1.99,-2.885 -3.8,-2.885c-1.317,-0 -2.485,0.646 -3.201,1.639Z" style="fill:url(#_Linear1);"/><path d="M5.705,3.383c-2.475,0.091 -4.455,2.129 -4.455,4.625c-0,1.709 0.913,4.629 4.372,4.629c-0,0 0.997,0 0.997,0c0.315,0 0.597,-0.197 0.704,-0.493c0.669,-1.836 1.885,-3.41 3.45,-4.524c-0.299,1.546 -0.368,3.006 -0.229,4.345c0.04,0.382 0.362,0.672 0.746,0.672l2.607,0c1.255,0 2.21,-0.451 2.859,-1.147c0.646,-0.694 0.994,-1.647 0.994,-2.706c-0,0 -0,0 -0,0c-0,-1.912 -1.393,-3.498 -3.219,-3.801c-0.531,-2.142 -2.468,-3.733 -4.774,-3.733c-1.68,0 -3.166,0.845 -4.052,2.133Z" style="fill:url(#_Linear2);"/><path d="M6.963,21.321c0.211,0.332 0.642,0.445 0.989,0.259c0.461,-0.248 0.987,-0.388 1.547,-0.388c1.68,0 3.067,1.266 3.257,2.895c0.044,0.378 0.364,0.664 0.745,0.664c0.897,-0 1.672,0.526 2.033,1.286c0.123,0.259 0.383,0.425 0.67,0.428c0.034,0 0.068,0.001 0.102,0.001c3.864,-0 7.268,-1.987 9.281,-4.972c0.008,-0.011 0.015,-0.022 0.022,-0.034c0.401,-0.671 0.379,-1.513 -0.058,-2.161c-0.436,-0.648 -1.206,-0.985 -1.977,-0.867c-0.205,0.027 -0.416,0.063 -0.626,0.112c-3.868,0.912 -6.923,0.133 -8.817,-1.85c-1.905,-1.996 -2.606,-5.158 -1.87,-8.868c0,0 0.249,-0.906 -0.627,-1.497c-0.487,-0.329 -1.124,-0.333 -1.616,-0.011c-0.006,0.004 -0.012,0.008 -0.018,0.012c-2.87,1.998 -4.75,5.321 -4.75,9.08c-0,2.173 0.629,4.2 1.713,5.911Z" style="fill:url(#_Linear3);"/><path d="M5.568,21.755c-2.4,0.095 -4.318,2.073 -4.318,4.495c-0,1.662 0.889,4.5 4.251,4.5c7.999,-0 7.999,0 7.999,-0c1.222,-0 2.151,-0.439 2.782,-1.118c0.629,-0.674 0.968,-1.602 0.968,-2.632c-0,0 -0,0 -0,0c-0,-1.855 -1.347,-3.395 -3.116,-3.696c-0.522,-2.074 -2.4,-3.612 -4.635,-3.612c-1.629,0 -3.069,0.817 -3.931,2.063Z" style="fill:url(#_Linear4);"/><defs><linearGradient id="_Linear1" x1="0" y1="0" x2="1" y2="0" gradientUnits="userSpaceOnUse" gradientTransform="matrix(7.1771e-16,11.7211,-11.7211,7.1771e-16,25.4804,13.5)"><stop offset="0" style="stop-color:#e2f4fd;stop-opacity:1"/><stop offset="1" style="stop-color:#4dc4ff;stop-opacity:1"/></linearGradient><linearGradient id="_Linear2" x1="0" y1="0" x2="1" y2="0" gradientUnits="userSpaceOnUse" gradientTransform="matrix(1.08553e-15,17.7281,-17.7281,1.08553e-15,8.59708,8.24999)"><stop offset="0" style="stop-color:#e2f4fd;stop-opacity:1"/><stop offset="1" style="stop-color:#4dc4ff;stop-opacity:1"/></linearGradient><linearGradient id="_Linear3" x1="0" y1="0" x2="1" y2="0" gradientUnits="userSpaceOnUse" gradientTransform="matrix(-6.1936,8.31402,-8.31402,-6.1936,13.1936,20)"><stop offset="0" style="stop-color:#fcb64d;stop-opacity:1"/><stop offset="1" style="stop-color:#d07c00;stop-opacity:1"/></linearGradient><linearGradient id="_Linear4" x1="0" y1="0" x2="1" y2="0" gradientUnits="userSpaceOnUse" gradientTransform="matrix(6.27393e-16,10.2461,-10.2461,6.27393e-16,12,27.8902)"><stop offset="0" style="stop-color:#e2f4fd;stop-opacity:1"/><stop offset="1" style="stop-color:#4dc4ff;stop-opacity:1"/></linearGradient></defs></svg>