<?xml version="1.0" encoding="UTF-8" standalone="no"?><!DOCTYPE svg PUBLIC "-//W3C//DTD SVG 1.1//EN" "http://www.w3.org/Graphics/SVG/1.1/DTD/svg11.dtd"><svg width="100%" height="100%" viewBox="0 0 32 32" version="1.1" xmlns="http://www.w3.org/2000/svg" xmlns:xlink="http://www.w3.org/1999/xlink" xml:space="preserve" xmlns:serif="http://www.serif.com/" style="fill-rule:evenodd;clip-rule:evenodd;stroke-linejoin:round;stroke-miterlimit:2;"><path d="M30.757,19.436c0,-0 0,-0 0,-0c0,-3.395 -2.585,-6.186 -5.894,-6.511c-0.761,-3.931 -4.223,-6.903 -8.375,-6.903c-3.033,-0 -5.7,1.587 -7.212,3.976c-0.009,-0.001 -0.018,-0.001 -0.028,-0.001c-4.41,0 -7.991,3.581 -7.991,7.991c0,1.532 0.428,3.645 1.685,5.305c0.122,0.16 0.303,0.265 0.503,0.291c0.2,0.025 0.402,-0.031 0.56,-0.156c0.556,-0.44 1.259,-0.703 2.022,-0.703c0.068,-0 0.135,0.002 0.202,0.006c0.287,0.018 0.559,-0.131 0.7,-0.382c0.61,-1.09 1.775,-1.827 3.111,-1.827c1.824,-0 3.331,1.375 3.537,3.145c0.044,0.378 0.364,0.663 0.745,0.663c0.924,0 1.729,0.51 2.15,1.263c0.132,0.238 0.383,0.385 0.655,0.385l7.088,0c2.132,0 3.759,-0.752 4.861,-1.935c1.099,-1.181 1.681,-2.806 1.681,-4.607Z" style="fill:url(#_Linear1);"/><path d="M18.351,3.456c-2.043,0.07 -3.762,1.431 -4.365,3.292c-0.084,0.257 -0.022,0.54 0.162,0.739c0.183,0.199 0.46,0.284 0.723,0.222c0.519,-0.122 1.061,-0.187 1.617,-0.187c3.149,-0 5.817,2.074 6.711,4.93c0.098,0.313 0.388,0.526 0.716,0.526l2.897,0c1.29,0 2.272,-0.463 2.939,-1.179c0.664,-0.713 1.021,-1.693 1.021,-2.781c0,0 0,0 0,0c0,-1.971 -1.44,-3.605 -3.325,-3.909c-0.54,-2.214 -2.538,-3.859 -4.917,-3.859c-1.734,0 -3.267,0.874 -4.179,2.206Z" style="fill:url(#_Linear2);"/><path d="M5.861,21.228c-2.551,0.087 -4.596,2.186 -4.596,4.759c-0,1.758 0.939,4.763 4.497,4.763c8.56,-0 8.56,0 8.56,-0c1.29,-0 2.272,-0.463 2.939,-1.179c0.663,-0.713 1.021,-1.693 1.021,-2.781c-0,-0 -0,-0 -0,-0c-0,-1.971 -1.44,-3.606 -3.325,-3.909c-0.54,-2.214 -2.538,-3.859 -4.917,-3.859c-1.735,-0 -3.267,0.874 -4.179,2.206Z" style="fill:url(#_Linear3);"/><defs><linearGradient id="_Linear1" x1="0" y1="0" x2="1" y2="0" gradientUnits="userSpaceOnUse" gradientTransform="matrix(1.57465e-15,25.7159,-25.7159,1.57465e-15,16,17.7841)"><stop offset="0" style="stop-color:#e2f4fd;stop-opacity:1"/><stop offset="1" style="stop-color:#4dc4ff;stop-opacity:1"/></linearGradient><linearGradient id="_Linear2" x1="0" y1="0" x2="1" y2="0" gradientUnits="userSpaceOnUse" gradientTransform="matrix(8.62497e-16,14.0856,-14.0856,8.62497e-16,22.3607,7.91435)"><stop offset="0" style="stop-color:#e2f4fd;stop-opacity:1"/><stop offset="1" style="stop-color:#4dc4ff;stop-opacity:1"/></linearGradient><linearGradient id="_Linear3" x1="0" y1="0" x2="1" y2="0" gradientUnits="userSpaceOnUse" gradientTransform="matrix(1.42225e-15,23.2271,-23.2271,1.42225e-15,10.5,26.2729)"><stop offset="0" style="stop-color:#e2f4fd;stop-opacity:1"/><stop offset="1" style="stop-color:#4dc4ff;stop-opacity:1"/></linearGradient></defs></svg>