<?xml version="1.0" encoding="UTF-8" standalone="no"?><!DOCTYPE svg PUBLIC "-//W3C//DTD SVG 1.1//EN" "http://www.w3.org/Graphics/SVG/1.1/DTD/svg11.dtd"><svg width="100%" height="100%" viewBox="0 0 32 32" version="1.1" xmlns="http://www.w3.org/2000/svg" xmlns:xlink="http://www.w3.org/1999/xlink" xml:space="preserve" xmlns:serif="http://www.serif.com/" style="fill-rule:evenodd;clip-rule:evenodd;stroke-linejoin:round;stroke-miterlimit:2;"><path d="M14.722,11.654c0.013,0.207 0.111,0.4 0.271,0.533c0.16,0.132 0.368,0.193 0.574,0.166c0.3,-0.039 0.604,-0.059 0.914,-0.059c2.752,-0 5.137,1.585 6.291,3.892c0.093,0.186 0.26,0.325 0.459,0.384c0.2,0.058 0.415,0.032 0.594,-0.074c1.778,-1.052 2.971,-2.99 2.971,-5.204c-0,-3.335 -2.708,-6.042 -6.042,-6.042c-3.335,0 -6.043,2.707 -6.043,6.042c0,0.121 0.004,0.242 0.011,0.362Z" style="fill:url(#_Linear1);"/><path d="M9.269,14.769l-0.029,0c-4.41,0 -7.99,3.58 -7.99,7.991c0,2.943 1.555,7.99 7.511,7.99c15.447,-0 15.447,0 15.447,-0c2.132,-0 3.759,-0.752 4.861,-1.935c1.099,-1.181 1.681,-2.806 1.681,-4.607c-0,-0 -0,-0 -0,-0c-0,-3.395 -2.585,-6.186 -5.895,-6.511c-0.76,-3.931 -4.223,-6.903 -8.374,-6.903c-3.033,-0 -5.699,1.586 -7.212,3.975Z" style="fill:url(#_Linear2);"/><path d="M20.004,1.993l-0,1.507c-0,0.414 0.336,0.75 0.75,0.75c0.414,-0 0.75,-0.336 0.75,-0.75l-0,-1.507c-0,-0.414 -0.336,-0.75 -0.75,-0.75c-0.414,-0 -0.75,0.336 -0.75,0.75Z" style="fill:url(#_Linear3);"/><path d="M26.767,4.173l-1.067,1.066c-0.293,0.293 -0.293,0.768 -0,1.061c0.293,0.293 0.768,0.293 1.061,0l1.066,-1.067c0.293,-0.292 0.293,-0.768 0,-1.06c-0.292,-0.293 -0.768,-0.293 -1.06,-0Z" style="fill:url(#_Linear4);"/><path d="M30.007,10.496l-1.507,0c-0.414,0 -0.75,0.336 -0.75,0.75c-0,0.414 0.336,0.75 0.75,0.75l1.507,0c0.414,0 0.75,-0.336 0.75,-0.75c0,-0.414 -0.336,-0.75 -0.75,-0.75Z" style="fill:url(#_Linear5);"/><path d="M13.68,5.233l1.067,1.067c0.292,0.293 0.768,0.293 1.06,0c0.293,-0.293 0.293,-0.768 0,-1.061l-1.066,-1.066c-0.293,-0.293 -0.768,-0.293 -1.061,-0c-0.293,0.292 -0.293,0.768 0,1.06Z" style="fill:url(#_Linear6);"/><defs><linearGradient id="_Linear1" x1="0" y1="0" x2="1" y2="0" gradientUnits="userSpaceOnUse" gradientTransform="matrix(-2.51835,7.39331,-7.39331,-2.51835,20.0183,10.3195)"><stop offset="0" style="stop-color:#fcd935;stop-opacity:1"/><stop offset="1" style="stop-color:#faa923;stop-opacity:1"/></linearGradient><linearGradient id="_Linear2" x1="0" y1="0" x2="1" y2="0" gradientUnits="userSpaceOnUse" gradientTransform="matrix(1.84941e-15,30.2031,-30.2031,1.84941e-15,18.8541,23.75)"><stop offset="0" style="stop-color:#e2f4fd;stop-opacity:1"/><stop offset="1" style="stop-color:#4dc4ff;stop-opacity:1"/></linearGradient><linearGradient id="_Linear3" x1="0" y1="0" x2="1" y2="0" gradientUnits="userSpaceOnUse" gradientTransform="matrix(2.43912e-16,3.98339,-3.98339,2.43912e-16,20.7683,3.12563)"><stop offset="0" style="stop-color:#fcd935;stop-opacity:1"/><stop offset="1" style="stop-color:#faa923;stop-opacity:1"/></linearGradient><linearGradient id="_Linear4" x1="0" y1="0" x2="1" y2="0" gradientUnits="userSpaceOnUse" gradientTransform="matrix(-4.14707,5.09428,-5.09428,-4.14707,26.1471,5.22518)"><stop offset="0" style="stop-color:#fcd935;stop-opacity:1"/><stop offset="1" style="stop-color:#c19f00;stop-opacity:1"/></linearGradient><linearGradient id="_Linear5" x1="0" y1="0" x2="1" y2="0" gradientUnits="userSpaceOnUse" gradientTransform="matrix(-7.73483,-0.0182765,0.0182765,-7.73483,29,11.2463)"><stop offset="0" style="stop-color:#fcd935;stop-opacity:1"/><stop offset="1" style="stop-color:#c19f00;stop-opacity:1"/></linearGradient><linearGradient id="_Linear6" x1="0" y1="0" x2="1" y2="0" gradientUnits="userSpaceOnUse" gradientTransform="matrix(4.01317,4.01317,-4.01317,4.01317,14.9721,5.71096)"><stop offset="0" style="stop-color:#fcd935;stop-opacity:1"/><stop offset="1" style="stop-color:#c19f00;stop-opacity:1"/></linearGradient></defs></svg>