<?xml version="1.0" encoding="UTF-8" standalone="no"?><!DOCTYPE svg PUBLIC "-//W3C//DTD SVG 1.1//EN" "http://www.w3.org/Graphics/SVG/1.1/DTD/svg11.dtd"><svg width="100%" height="100%" viewBox="0 0 32 32" version="1.1" xmlns="http://www.w3.org/2000/svg" xmlns:xlink="http://www.w3.org/1999/xlink" xml:space="preserve" xmlns:serif="http://www.serif.com/" style="fill-rule:evenodd;clip-rule:evenodd;stroke-linejoin:round;stroke-miterlimit:2;"><path d="M11.33,3.756c-0.641,-0.785 -1.776,-1.013 -2.682,-0.49c-0.906,0.523 -1.276,1.62 -0.916,2.567l-1.02,-0.242c-1.13,-0.268 -2.266,0.432 -2.534,1.562c-0.268,1.13 0.432,2.266 1.562,2.534c-0,0 4.85,1.151 4.85,1.151c-0.001,0 1.764,3.057 1.764,3.057c0,0 -3.529,0 -3.529,0c-0,0 -3.422,-3.624 -3.422,-3.624c-0.798,-0.845 -2.131,-0.883 -2.976,-0.085c-0.844,0.797 -0.883,2.13 -0.085,2.975l0.719,0.762c-1,0.162 -1.765,1.031 -1.765,2.077c0,1.046 0.765,1.915 1.765,2.077l-0.719,0.762c-0.798,0.845 -0.759,2.178 0.085,2.975c0.845,0.798 2.178,0.76 2.976,-0.085c-0,0 3.422,-3.624 3.422,-3.624c-0,-0 3.529,-0 3.529,-0c0,-0 -1.765,3.057 -1.765,3.057c0.001,-0 -4.849,1.151 -4.849,1.151c-1.13,0.268 -1.83,1.404 -1.562,2.534c0.268,1.13 1.404,1.83 2.534,1.562l1.02,-0.242c-0.36,0.947 0.01,2.044 0.916,2.567c0.906,0.523 2.041,0.295 2.682,-0.49l0.3,1.004c0.332,1.113 1.506,1.746 2.619,1.414c1.113,-0.333 1.747,-1.507 1.414,-2.62c-0,0 -1.428,-4.776 -1.428,-4.776c0,0 1.765,-3.056 1.765,-3.056c-0,-0 1.765,3.056 1.765,3.056c-0,0 -1.428,4.776 -1.428,4.776c-0.333,1.113 0.301,2.287 1.414,2.62c1.113,0.332 2.287,-0.301 2.619,-1.414l0.3,-1.004c0.641,0.785 1.776,1.013 2.682,0.49c0.906,-0.523 1.276,-1.62 0.916,-2.567l1.02,0.242c1.13,0.268 2.266,-0.432 2.534,-1.562c0.268,-1.13 -0.432,-2.266 -1.562,-2.534c0,-0 -4.85,-1.151 -4.85,-1.151c0.001,-0 -1.764,-3.057 -1.764,-3.057c-0,-0 3.529,-0 3.529,-0c0,-0 3.422,3.624 3.422,3.624c0.798,0.845 2.131,0.883 2.976,0.085c0.844,-0.797 0.883,-2.13 0.085,-2.975l-0.719,-0.762c1,-0.162 1.765,-1.031 1.765,-2.077c-0,-1.046 -0.765,-1.915 -1.765,-2.077l0.719,-0.762c0.798,-0.845 0.759,-2.178 -0.085,-2.975c-0.845,-0.798 -2.178,-0.76 -2.976,0.085c0,-0 -3.422,3.624 -3.422,3.624c0,0 -3.529,0 -3.529,0c-0,0 1.765,-3.057 1.765,-3.057c-0.001,0 4.849,-1.151 4.849,-1.151c1.13,-0.268 1.83,-1.404 1.562,-2.534c-0.268,-1.13 -1.404,-1.83 -2.534,-1.562l-1.02,0.242c0.36,-0.947 -0.01,-2.044 -0.916,-2.567c-0.906,-0.523 -2.041,-0.295 -2.682,0.49l-0.3,-1.004c-0.332,-1.113 -1.506,-1.746 -2.619,-1.414c-1.113,0.333 -1.747,1.507 -1.414,2.62c0,-0 1.428,4.776 1.428,4.776c-0,-0 -1.765,3.056 -1.765,3.056c0,0 -1.765,-3.056 -1.765,-3.056c0,-0 1.428,-4.776 1.428,-4.776c0.333,-1.113 -0.301,-2.287 -1.414,-2.62c-1.113,-0.332 -2.287,0.301 -2.619,1.414l-0.3,1.004Z" style="fill:url(#_Linear1);"/><defs><linearGradient id="_Linear1" x1="0" y1="0" x2="1" y2="0" gradientUnits="userSpaceOnUse" gradientTransform="matrix(2.85418e-15,46.6122,-46.6122,2.85418e-15,16.4803,15.3878)"><stop offset="0" style="stop-color:#83d3f6;stop-opacity:1"/><stop offset="1" style="stop-color:#00aefb;stop-opacity:1"/></linearGradient></defs></svg>