<?xml version="1.0" encoding="UTF-8" standalone="no"?><!DOCTYPE svg PUBLIC "-//W3C//DTD SVG 1.1//EN" "http://www.w3.org/Graphics/SVG/1.1/DTD/svg11.dtd"><svg width="100%" height="100%" viewBox="0 0 32 32" version="1.1" xmlns="http://www.w3.org/2000/svg" xmlns:xlink="http://www.w3.org/1999/xlink" xml:space="preserve" xmlns:serif="http://www.serif.com/" style="fill-rule:evenodd;clip-rule:evenodd;stroke-linejoin:round;stroke-miterlimit:2;"><path d="M27.729,17.776l-0,-12.416c-0,-1.09 -0.433,-2.135 -1.204,-2.906c-0.771,-0.771 -1.816,-1.204 -2.906,-1.204c-1.09,0 -2.136,0.433 -2.906,1.204c-0.771,0.771 -1.204,1.816 -1.204,2.906c-0,0 -0,12.416 -0,12.416c-1.832,1.292 -3.029,3.425 -3.029,5.836c0,3.939 3.199,7.138 7.139,7.138c3.94,0 7.138,-3.199 7.138,-7.138c0,-2.411 -1.196,-4.544 -3.028,-5.836Z" style="fill:url(#_Linear1);"/><path d="M16.095,4.017c-0,0.336 -0.134,0.658 -0.371,0.896c-0.238,0.238 -0.56,0.371 -0.896,0.371l-9.009,0c-0.414,0 -0.75,0.336 -0.75,0.75c-0,0.414 0.336,0.75 0.75,0.75c-0,0 6.335,0 9.009,0c0.734,0 1.438,-0.291 1.956,-0.81c0.519,-0.519 0.811,-1.223 0.811,-1.957c-0,-0.734 -0.292,-1.438 -0.811,-1.957c-0.518,-0.518 -1.222,-0.81 -1.956,-0.81c-0.414,0 -0.75,0.336 -0.75,0.75c-0,0.414 0.336,0.75 0.75,0.75c0.336,-0 0.658,0.133 0.896,0.371c0.237,0.238 0.371,0.56 0.371,0.896Z" style="fill:url(#_Linear2);"/><path d="M10.374,1.25c-1.721,0 -6.492,0 -6.492,0c-0.413,0 -0.75,0.336 -0.75,0.75c0,0.414 0.337,0.75 0.75,0.75c0,0 4.771,0 6.492,0c0.414,-0 0.75,-0.336 0.75,-0.75c-0,-0.414 -0.336,-0.75 -0.75,-0.75Z" style="fill:url(#_Linear3);"/><path d="M11.557,13.604c-0,0.146 -0.058,0.285 -0.161,0.388c-0.102,0.102 -0.242,0.16 -0.387,0.16l-6.491,0c-0.414,0 -0.75,0.336 -0.75,0.75c-0,0.414 0.336,0.75 0.75,0.75c-0,0 4.771,0 6.491,0c0.543,0 1.064,-0.216 1.448,-0.6c0.384,-0.384 0.6,-0.904 0.6,-1.448c-0,-0.543 -0.216,-1.063 -0.6,-1.447c-0.384,-0.384 -0.905,-0.6 -1.448,-0.6c-0.414,-0 -0.75,0.336 -0.75,0.75c0,0.414 0.336,0.75 0.75,0.75c0.145,-0 0.285,0.058 0.387,0.16c0.103,0.103 0.161,0.242 0.161,0.387Z" style="fill:url(#_Linear4);"/><path d="M15.076,8.632l-12.957,0c-0.414,0 -0.75,0.336 -0.75,0.75c-0,0.414 0.336,0.75 0.75,0.75l12.957,0c0.414,0 0.75,-0.336 0.75,-0.75c-0,-0.414 -0.336,-0.75 -0.75,-0.75Z" style="fill:url(#_Linear5);"/><path d="M19.393,23.229c-0.088,0.132 -0.098,0.262 -0.098,0.397c-0,2.386 1.937,4.324 4.324,4.324c2.386,-0 4.324,-1.938 4.324,-4.324c-0,-0.357 -0.044,-0.704 -0.125,-1.036c-0,-0 -0.054,-0.208 -0.219,-0.372l-0,-0c-0.786,-0.785 -1.519,-1.061 -2.156,-1.089c-0.967,-0.043 -1.775,0.512 -2.354,1.091c-0.431,0.431 -1.225,0.809 -2.01,0.374c-0.362,-0.203 -0.809,-0.199 -1.17,0.013c-0.244,0.142 -0.424,0.364 -0.516,0.622Z" style="fill:url(#_Linear6);"/><path d="M27.845,23.229c0.087,0.132 0.098,0.262 0.098,0.397c-0,2.386 -1.938,4.324 -4.324,4.324c-2.387,-0 -4.324,-1.938 -4.324,-4.324c-0,-0.357 0.043,-0.704 0.125,-1.036c0,-0 0.053,-0.208 0.219,-0.372l0,-0c0.786,-0.785 1.519,-1.061 2.156,-1.089c0.966,-0.043 1.775,0.512 2.354,1.091c0.431,0.431 1.225,0.809 2.01,0.374c0.362,-0.203 0.809,-0.199 1.17,0.013c0.244,0.142 0.424,0.364 0.516,0.622Z" style="fill:url(#_Linear7);"/><path d="M27.729,15.25l-2.75,0c-0.414,0 -0.75,0.336 -0.75,0.75c-0,0.414 0.336,0.75 0.75,0.75l2.75,0l-0,-1.5Zm-0,-3.36l-2.75,-0c-0.414,-0 -0.75,0.336 -0.75,0.75c-0,0.414 0.336,0.75 0.75,0.75l2.75,-0l-0,-1.5Zm-0,-3.36l-2.75,0c-0.414,-0 -0.75,0.336 -0.75,0.75c-0,0.414 0.336,0.75 0.75,0.75l2.75,0l-0,-1.5Zm-0.005,-3.36l-2.745,-0c-0.414,-0 -0.75,0.336 -0.75,0.75c-0,0.414 0.336,0.75 0.75,0.75l2.75,-0l-0,-1.31c-0,-0.064 -0.002,-0.127 -0.005,-0.19Z" style="fill:url(#_Linear8);"/><defs><linearGradient id="_Linear1" x1="0" y1="0" x2="1" y2="0" gradientUnits="userSpaceOnUse" gradientTransform="matrix(1.19403e-15,19.5,-19.5,1.19403e-15,24.2288,24)"><stop offset="0" style="stop-color:#6dbeff;stop-opacity:1"/><stop offset="1" style="stop-color:#0085f0;stop-opacity:1"/></linearGradient><linearGradient id="_Linear2" x1="0" y1="0" x2="1" y2="0" gradientUnits="userSpaceOnUse" gradientTransform="matrix(1.83066e-15,29.897,-29.897,1.83066e-15,11.721,9.25)"><stop offset="0" style="stop-color:#6dbeff;stop-opacity:1"/><stop offset="1" style="stop-color:#0085f0;stop-opacity:1"/></linearGradient><linearGradient id="_Linear3" x1="0" y1="0" x2="1" y2="0" gradientUnits="userSpaceOnUse" gradientTransform="matrix(1.83066e-15,29.897,-29.897,1.83066e-15,11.721,9.25)"><stop offset="0" style="stop-color:#6dbeff;stop-opacity:1"/><stop offset="1" style="stop-color:#0085f0;stop-opacity:1"/></linearGradient><linearGradient id="_Linear4" x1="0" y1="0" x2="1" y2="0" gradientUnits="userSpaceOnUse" gradientTransform="matrix(1.83066e-15,29.897,-29.897,1.83066e-15,11.721,9.25)"><stop offset="0" style="stop-color:#6dbeff;stop-opacity:1"/><stop offset="1" style="stop-color:#0085f0;stop-opacity:1"/></linearGradient><linearGradient id="_Linear5" x1="0" y1="0" x2="1" y2="0" gradientUnits="userSpaceOnUse" gradientTransform="matrix(1.83066e-15,29.897,-29.897,1.83066e-15,11.721,9.25)"><stop offset="0" style="stop-color:#6dbeff;stop-opacity:1"/><stop offset="1" style="stop-color:#0085f0;stop-opacity:1"/></linearGradient><linearGradient id="_Linear6" x1="0" y1="0" x2="1" y2="0" gradientUnits="userSpaceOnUse" gradientTransform="matrix(-0.650332,2.73748,-2.73748,-0.650332,25.895,21.6253)"><stop offset="0" style="stop-color:#e2f4fd;stop-opacity:1"/><stop offset="1" style="stop-color:#4dc4ff;stop-opacity:1"/></linearGradient><linearGradient id="_Linear7" x1="0" y1="0" x2="1" y2="0" gradientUnits="userSpaceOnUse" gradientTransform="matrix(-6.4834e-16,10.5882,10.5882,6.4834e-16,22.7377,24.5382)"><stop offset="0" style="stop-color:#e2f4fd;stop-opacity:1"/><stop offset="1" style="stop-color:#4dc4ff;stop-opacity:1"/></linearGradient><linearGradient id="_Linear8" x1="0" y1="0" x2="1" y2="0" gradientUnits="userSpaceOnUse" gradientTransform="matrix(8.57952e-16,14.0114,-14.0114,8.57952e-16,26.0939,13.389)"><stop offset="0" style="stop-color:#e2f4fd;stop-opacity:1"/><stop offset="1" style="stop-color:#4dc4ff;stop-opacity:1"/></linearGradient></defs></svg>