<?xml version="1.0" encoding="UTF-8" standalone="no"?><!DOCTYPE svg PUBLIC "-//W3C//DTD SVG 1.1//EN" "http://www.w3.org/Graphics/SVG/1.1/DTD/svg11.dtd"><svg width="100%" height="100%" viewBox="0 0 32 32" version="1.1" xmlns="http://www.w3.org/2000/svg" xmlns:xlink="http://www.w3.org/1999/xlink" xml:space="preserve" xmlns:serif="http://www.serif.com/" style="fill-rule:evenodd;clip-rule:evenodd;stroke-linejoin:round;stroke-miterlimit:2;"><circle cx="19.75" cy="19.75" r="6.47" style="fill:url(#_Linear1);"/><path d="M19,9.5l-0,1.83c0,0.414 0.336,0.75 0.75,0.75c0.414,0 0.75,-0.336 0.75,-0.75l-0,-1.83c0,-0.414 -0.336,-0.75 -0.75,-0.75c-0.414,-0 -0.75,0.336 -0.75,0.75Z" style="fill:url(#_Linear2);"/><path d="M24.225,10.498l-0.915,1.585c-0.207,0.359 -0.084,0.818 0.275,1.025c0.358,0.207 0.817,0.084 1.024,-0.275l0.916,-1.585c0.206,-0.358 0.083,-0.817 -0.275,-1.024c-0.358,-0.207 -0.818,-0.084 -1.025,0.274Z" style="fill:url(#_Linear3);"/><path d="M28.252,13.975l-1.585,0.916c-0.359,0.207 -0.482,0.666 -0.275,1.024c0.207,0.359 0.666,0.482 1.025,0.275l1.585,-0.915c0.358,-0.207 0.481,-0.667 0.274,-1.025c-0.207,-0.358 -0.666,-0.481 -1.024,-0.275Z" style="fill:url(#_Linear4);"/><path d="M30,19l-1.83,0c-0.414,-0 -0.75,0.336 -0.75,0.75c-0,0.414 0.336,0.75 0.75,0.75l1.83,0c0.414,-0 0.75,-0.336 0.75,-0.75c-0,-0.414 -0.336,-0.75 -0.75,-0.75Z" style="fill:url(#_Linear5);"/><path d="M29.002,24.225l-1.585,-0.915c-0.359,-0.207 -0.818,-0.084 -1.025,0.275c-0.207,0.358 -0.084,0.817 0.275,1.024l1.585,0.916c0.358,0.206 0.817,0.083 1.024,-0.275c0.207,-0.358 0.084,-0.818 -0.274,-1.025Z" style="fill:url(#_Linear6);"/><path d="M25.525,28.252l-0.916,-1.585c-0.207,-0.359 -0.666,-0.482 -1.024,-0.275c-0.359,0.207 -0.482,0.666 -0.275,1.025l0.915,1.585c0.207,0.358 0.667,0.481 1.025,0.274c0.358,-0.207 0.481,-0.666 0.275,-1.024Z" style="fill:url(#_Linear7);"/><path d="M20.5,30l-0,-1.83c0,-0.414 -0.336,-0.75 -0.75,-0.75c-0.414,-0 -0.75,0.336 -0.75,0.75l-0,1.83c0,0.414 0.336,0.75 0.75,0.75c0.414,-0 0.75,-0.336 0.75,-0.75Z" style="fill:url(#_Linear8);"/><path d="M15.275,29.002l0.915,-1.585c0.207,-0.359 0.084,-0.818 -0.275,-1.025c-0.358,-0.207 -0.817,-0.084 -1.024,0.275l-0.916,1.585c-0.206,0.358 -0.083,0.817 0.275,1.024c0.358,0.207 0.818,0.084 1.025,-0.274Z" style="fill:url(#_Linear9);"/><path d="M11.248,25.525l1.585,-0.916c0.359,-0.207 0.482,-0.666 0.275,-1.024c-0.207,-0.359 -0.666,-0.482 -1.025,-0.275l-1.585,0.915c-0.358,0.207 -0.481,0.667 -0.274,1.025c0.207,0.358 0.666,0.481 1.024,0.275Z" style="fill:url(#_Linear10);"/><path d="M9.5,20.5l1.83,0c0.414,-0 0.75,-0.336 0.75,-0.75c0,-0.414 -0.336,-0.75 -0.75,-0.75l-1.83,0c-0.414,-0 -0.75,0.336 -0.75,0.75c-0,0.414 0.336,0.75 0.75,0.75Z" style="fill:url(#_Linear11);"/><path d="M15.976,4.01c0,0.336 -0.133,0.658 -0.371,0.896c-0.237,0.237 -0.56,0.371 -0.896,0.371l-9.009,-0c-0.414,-0 -0.75,0.336 -0.75,0.75c0,0.414 0.336,0.75 0.75,0.75c0,-0 6.335,-0 9.009,-0c0.734,-0 1.438,-0.292 1.957,-0.811c0.519,-0.519 0.81,-1.222 0.81,-1.956c0,-0.734 -0.291,-1.438 -0.81,-1.957c-0.519,-0.519 -1.223,-0.81 -1.957,-0.81c-0.414,-0 -0.75,0.336 -0.75,0.75c0,0.414 0.336,0.75 0.75,0.75c0.336,-0 0.659,0.133 0.896,0.371c0.238,0.237 0.371,0.56 0.371,0.896Z" style="fill:url(#_Linear12);"/><path d="M10.255,1.243c-1.72,-0 -6.491,-0 -6.491,-0c-0.414,-0 -0.75,0.336 -0.75,0.75c-0,0.414 0.336,0.75 0.75,0.75c-0,-0 4.771,-0 6.491,-0c0.414,-0 0.75,-0.336 0.75,-0.75c0,-0.414 -0.336,-0.75 -0.75,-0.75Z" style="fill:url(#_Linear13);"/><path d="M11.438,13.597c0,0.145 -0.058,0.285 -0.16,0.387c-0.103,0.103 -0.242,0.161 -0.387,0.161l-6.492,-0c-0.414,-0 -0.75,0.336 -0.75,0.75c0,0.414 0.336,0.75 0.75,0.75c0,-0 4.771,-0 6.492,-0c0.543,-0 1.063,-0.216 1.447,-0.6c0.384,-0.384 0.6,-0.905 0.6,-1.448c0,-0.543 -0.216,-1.064 -0.6,-1.448c-0.384,-0.384 -0.904,-0.599 -1.447,-0.599c-0.414,-0 -0.75,0.336 -0.75,0.75c-0,0.414 0.336,0.75 0.75,0.75c0.145,-0 0.284,0.057 0.387,0.16c0.102,0.103 0.16,0.242 0.16,0.387Z" style="fill:url(#_Linear14);"/><path d="M14.957,8.625l-12.957,0c-0.414,0 -0.75,0.336 -0.75,0.75c-0,0.414 0.336,0.75 0.75,0.75l12.957,0c0.414,0 0.75,-0.336 0.75,-0.75c0,-0.414 -0.336,-0.75 -0.75,-0.75Z" style="fill:url(#_Linear15);"/><defs><linearGradient id="_Linear1" x1="0" y1="0" x2="1" y2="0" gradientUnits="userSpaceOnUse" gradientTransform="matrix(1.22465e-15,20,-20,1.22465e-15,18.3452,22)"><stop offset="0" style="stop-color:#fcd935;stop-opacity:1"/><stop offset="1" style="stop-color:#c19f00;stop-opacity:1"/></linearGradient><linearGradient id="_Linear2" x1="0" y1="0" x2="1" y2="0" gradientUnits="userSpaceOnUse" gradientTransform="matrix(4.41247e-16,7.20611,-7.20611,4.41247e-16,19.75,10.7939)"><stop offset="0" style="stop-color:#fcd935;stop-opacity:1"/><stop offset="1" style="stop-color:#c19f00;stop-opacity:1"/></linearGradient><linearGradient id="_Linear3" x1="0" y1="0" x2="1" y2="0" gradientUnits="userSpaceOnUse" gradientTransform="matrix(-2.21409,4.91964,-4.91964,-2.21409,24.1216,12.0804)"><stop offset="0" style="stop-color:#fcd935;stop-opacity:1"/><stop offset="1" style="stop-color:#c19f00;stop-opacity:1"/></linearGradient><linearGradient id="_Linear4" x1="0" y1="0" x2="1" y2="0" gradientUnits="userSpaceOnUse" gradientTransform="matrix(-4.5,3.13752,-3.13752,-4.5,28,15.0826)"><stop offset="0" style="stop-color:#fcd935;stop-opacity:1"/><stop offset="1" style="stop-color:#c19f00;stop-opacity:1"/></linearGradient><linearGradient id="_Linear5" x1="0" y1="0" x2="1" y2="0" gradientUnits="userSpaceOnUse" gradientTransform="matrix(-7.13161,-0.186868,0.186868,-7.13161,29.3768,19.9369)"><stop offset="0" style="stop-color:#fcd935;stop-opacity:1"/><stop offset="1" style="stop-color:#c19f00;stop-opacity:1"/></linearGradient><linearGradient id="_Linear6" x1="0" y1="0" x2="1" y2="0" gradientUnits="userSpaceOnUse" gradientTransform="matrix(-5.33419,-4,4,-5.33419,27.8342,24.5)"><stop offset="0" style="stop-color:#fcd935;stop-opacity:1"/><stop offset="1" style="stop-color:#c19f00;stop-opacity:1"/></linearGradient><linearGradient id="_Linear7" x1="0" y1="0" x2="1" y2="0" gradientUnits="userSpaceOnUse" gradientTransform="matrix(-3.18463,-4.77388,4.77388,-3.18463,24.4174,27.9837)"><stop offset="0" style="stop-color:#fcd935;stop-opacity:1"/><stop offset="1" style="stop-color:#c19f00;stop-opacity:1"/></linearGradient><linearGradient id="_Linear8" x1="0" y1="0" x2="1" y2="0" gradientUnits="userSpaceOnUse" gradientTransform="matrix(-0.25,-5.45314,5.45314,-0.25,19.75,29)"><stop offset="0" style="stop-color:#fcd935;stop-opacity:1"/><stop offset="1" style="stop-color:#c19f00;stop-opacity:1"/></linearGradient><linearGradient id="_Linear9" x1="0" y1="0" x2="1" y2="0" gradientUnits="userSpaceOnUse" gradientTransform="matrix(2.91741,-4.70314,4.70314,2.91741,15.0826,27.5)"><stop offset="0" style="stop-color:#fcd935;stop-opacity:1"/><stop offset="1" style="stop-color:#c19f00;stop-opacity:1"/></linearGradient><linearGradient id="_Linear10" x1="0" y1="0" x2="1" y2="0" gradientUnits="userSpaceOnUse" gradientTransform="matrix(6.83672,-4.19988,4.19988,6.83672,11.6658,24.5)"><stop offset="0" style="stop-color:#fcd935;stop-opacity:1"/><stop offset="1" style="stop-color:#c19f00;stop-opacity:1"/></linearGradient><linearGradient id="_Linear11" x1="0" y1="0" x2="1" y2="0" gradientUnits="userSpaceOnUse" gradientTransform="matrix(10.7992,3.15544e-30,0,10.7992,10.4152,19.75)"><stop offset="0" style="stop-color:#fcd935;stop-opacity:1"/><stop offset="1" style="stop-color:#c19f00;stop-opacity:1"/></linearGradient><linearGradient id="_Linear12" x1="0" y1="0" x2="1" y2="0" gradientUnits="userSpaceOnUse" gradientTransform="matrix(1.26247e-15,20.6178,-20.6178,1.26247e-15,8.75,9.78589)"><stop offset="0" style="stop-color:#56c2ef;stop-opacity:1"/><stop offset="1" style="stop-color:#0094d1;stop-opacity:1"/></linearGradient><linearGradient id="_Linear13" x1="0" y1="0" x2="1" y2="0" gradientUnits="userSpaceOnUse" gradientTransform="matrix(1.26247e-15,20.6178,-20.6178,1.26247e-15,8.75,9.78589)"><stop offset="0" style="stop-color:#56c2ef;stop-opacity:1"/><stop offset="1" style="stop-color:#0094d1;stop-opacity:1"/></linearGradient><linearGradient id="_Linear14" x1="0" y1="0" x2="1" y2="0" gradientUnits="userSpaceOnUse" gradientTransform="matrix(1.26247e-15,20.6178,-20.6178,1.26247e-15,8.75,9.78589)"><stop offset="0" style="stop-color:#56c2ef;stop-opacity:1"/><stop offset="1" style="stop-color:#0094d1;stop-opacity:1"/></linearGradient><linearGradient id="_Linear15" x1="0" y1="0" x2="1" y2="0" gradientUnits="userSpaceOnUse" gradientTransform="matrix(1.26247e-15,20.6178,-20.6178,1.26247e-15,8.75,9.78589)"><stop offset="0" style="stop-color:#56c2ef;stop-opacity:1"/><stop offset="1" style="stop-color:#0094d1;stop-opacity:1"/></linearGradient></defs></svg>