<?xml version="1.0" encoding="UTF-8" standalone="no"?><!DOCTYPE svg PUBLIC "-//W3C//DTD SVG 1.1//EN" "http://www.w3.org/Graphics/SVG/1.1/DTD/svg11.dtd"><svg width="100%" height="100%" viewBox="0 0 32 32" version="1.1" xmlns="http://www.w3.org/2000/svg" xmlns:xlink="http://www.w3.org/1999/xlink" xml:space="preserve" xmlns:serif="http://www.serif.com/" style="fill-rule:evenodd;clip-rule:evenodd;stroke-linejoin:round;stroke-miterlimit:2;"><path d="M15.131,17.776l-0,-12.416c-0,-1.09 -0.433,-2.135 -1.204,-2.906c-0.771,-0.771 -1.816,-1.204 -2.906,-1.204c-1.09,0 -2.136,0.433 -2.906,1.204c-0.771,0.771 -1.204,1.816 -1.204,2.906c-0,0 -0,12.416 -0,12.416c-1.832,1.292 -3.029,3.425 -3.029,5.836c0,3.939 3.199,7.138 7.139,7.138c3.94,0 7.138,-3.199 7.138,-7.138c0,-2.411 -1.197,-4.544 -3.028,-5.836Z" style="fill:url(#_Linear1);"/><path d="M6.795,23.229c-0.088,0.132 -0.098,0.262 -0.098,0.397c-0,2.386 1.937,4.324 4.324,4.324c2.386,-0 4.324,-1.938 4.324,-4.324c-0,-0.357 -0.044,-0.704 -0.125,-1.036c-0,-0 -0.054,-0.208 -0.219,-0.372l-0,-0c-0.786,-0.785 -1.519,-1.061 -2.156,-1.089c-0.967,-0.043 -1.775,0.512 -2.355,1.091c-0.43,0.431 -1.224,0.809 -2.01,0.374c-0.361,-0.203 -0.808,-0.199 -1.17,0.013c-0.243,0.142 -0.423,0.364 -0.515,0.622Z" style="fill:url(#_Linear2);"/><path d="M15.247,23.229c0.087,0.132 0.098,0.262 0.098,0.397c-0,2.386 -1.938,4.324 -4.324,4.324c-2.387,-0 -4.324,-1.938 -4.324,-4.324c-0,-0.357 0.043,-0.704 0.125,-1.036c-0,-0 0.053,-0.208 0.219,-0.372l-0,-0c0.786,-0.785 1.519,-1.061 2.156,-1.089c0.966,-0.043 1.775,0.512 2.354,1.091c0.431,0.431 1.224,0.809 2.01,0.374c0.362,-0.203 0.808,-0.199 1.17,0.013c0.244,0.142 0.424,0.364 0.516,0.622Z" style="fill:url(#_Linear3);"/><path d="M15.131,15.25l-2.75,0c-0.414,0 -0.75,0.336 -0.75,0.75c-0,0.414 0.336,0.75 0.75,0.75l2.75,0l-0,-1.5Zm-0,-3.36l-2.75,-0c-0.414,-0 -0.75,0.336 -0.75,0.75c-0,0.414 0.336,0.75 0.75,0.75l2.75,-0l-0,-1.5Zm-0,-3.36l-2.75,0c-0.414,-0 -0.75,0.336 -0.75,0.75c-0,0.414 0.336,0.75 0.75,0.75l2.75,0l-0,-1.5Zm-0.005,-3.36l-2.745,-0c-0.414,-0 -0.75,0.336 -0.75,0.75c-0,0.414 0.336,0.75 0.75,0.75l2.75,-0l-0,-1.31c-0,-0.064 -0.002,-0.127 -0.005,-0.19Z" style="fill:url(#_Linear4);"/><path d="M24.821,4.453c-0.246,-0.587 -0.821,-0.969 -1.458,-0.969c-0.638,-0 -1.213,0.382 -1.46,0.97c-1.198,2.726 -3.325,8.011 -3.325,10.702c0,2.64 2.144,4.784 4.785,4.784c2.64,0 4.784,-2.144 4.784,-4.784c0,-2.687 -2.121,-7.963 -3.326,-10.703Z" style="fill:url(#_Linear5);"/><path d="M27.743,12.471c-0.055,-0.221 -0.208,-0.405 -0.416,-0.5c-0.207,-0.095 -0.447,-0.091 -0.65,0.012c-0.336,0.17 -0.661,0.399 -0.962,0.701c-0.314,0.314 -0.55,0.479 -0.778,0.502c-0.165,0.016 -0.305,-0.056 -0.448,-0.131c-0.173,-0.091 -0.343,-0.202 -0.52,-0.305c-0.705,-0.413 -1.478,-0.72 -2.575,-0.217c-0.34,0.156 -1.215,0.273 -1.681,0.16c-0.198,-0.048 -0.408,-0.014 -0.58,0.096c-0.172,0.109 -0.292,0.284 -0.332,0.484c-0.143,0.701 -0.223,1.342 -0.223,1.883c0,2.64 2.144,4.784 4.785,4.784c2.64,0 4.784,-2.144 4.784,-4.784c0,-0.74 -0.151,-1.668 -0.404,-2.685Z" style="fill:url(#_Linear6);"/><path d="M18.982,12.471c0.056,-0.221 0.209,-0.405 0.416,-0.5c0.208,-0.095 0.447,-0.091 0.651,0.012c0.336,0.17 0.66,0.399 0.962,0.701c0.314,0.314 0.549,0.479 0.778,0.502c0.165,0.016 0.305,-0.056 0.447,-0.131c0.174,-0.091 0.344,-0.202 0.52,-0.305c0.706,-0.413 1.479,-0.72 2.575,-0.217c0.341,0.156 1.216,0.273 1.682,0.16c0.198,-0.048 0.407,-0.014 0.579,0.096c0.172,0.109 0.292,0.284 0.333,0.484c0.142,0.701 0.222,1.342 0.222,1.883c0,2.64 -2.144,4.784 -4.784,4.784c-2.641,0 -4.785,-2.144 -4.785,-4.784c0,-0.74 0.151,-1.668 0.404,-2.685Z" style="fill:url(#_Linear7);"/><defs><linearGradient id="_Linear1" x1="0" y1="0" x2="1" y2="0" gradientUnits="userSpaceOnUse" gradientTransform="matrix(1.86759e-15,30.5,-30.5,1.86759e-15,11.6308,24)"><stop offset="0" style="stop-color:#6dbeff;stop-opacity:1"/><stop offset="1" style="stop-color:#0085f0;stop-opacity:1"/></linearGradient><linearGradient id="_Linear2" x1="0" y1="0" x2="1" y2="0" gradientUnits="userSpaceOnUse" gradientTransform="matrix(-1.27759,4.33976,-4.33976,-1.27759,13.1461,21.1602)"><stop offset="0" style="stop-color:#e2f4fd;stop-opacity:1"/><stop offset="1" style="stop-color:#4dc4ff;stop-opacity:1"/></linearGradient><linearGradient id="_Linear3" x1="0" y1="0" x2="1" y2="0" gradientUnits="userSpaceOnUse" gradientTransform="matrix(9.77378e-16,15.9618,-15.9618,9.77378e-16,10.5,24.5382)"><stop offset="0" style="stop-color:#e2f4fd;stop-opacity:1"/><stop offset="1" style="stop-color:#4dc4ff;stop-opacity:1"/></linearGradient><linearGradient id="_Linear4" x1="0" y1="0" x2="1" y2="0" gradientUnits="userSpaceOnUse" gradientTransform="matrix(2.34213e-15,38.2499,-38.2499,2.34213e-15,12.5,12.5)"><stop offset="0" style="stop-color:#e2f4fd;stop-opacity:1"/><stop offset="1" style="stop-color:#4dc4ff;stop-opacity:1"/></linearGradient><linearGradient id="_Linear5" x1="0" y1="0" x2="1" y2="0" gradientUnits="userSpaceOnUse" gradientTransform="matrix(5.06174e-16,8.26645,-8.26645,5.06174e-16,23.5,10.7335)"><stop offset="0" style="stop-color:#6dbeff;stop-opacity:1"/><stop offset="1" style="stop-color:#0085f0;stop-opacity:1"/></linearGradient><linearGradient id="_Linear6" x1="0" y1="0" x2="1" y2="0" gradientUnits="userSpaceOnUse" gradientTransform="matrix(1.53081e-16,2.5,-2.5,1.53081e-16,24.7269,12)"><stop offset="0" style="stop-color:#e2f4fd;stop-opacity:1"/><stop offset="1" style="stop-color:#4dc4ff;stop-opacity:1"/></linearGradient><linearGradient id="_Linear7" x1="0" y1="0" x2="1" y2="0" gradientUnits="userSpaceOnUse" gradientTransform="matrix(7.55276e-16,12.3346,-12.3346,7.55276e-16,24,17)"><stop offset="0" style="stop-color:#e2f4fd;stop-opacity:1"/><stop offset="1" style="stop-color:#4dc4ff;stop-opacity:1"/></linearGradient></defs></svg>