<?xml version="1.0" encoding="UTF-8" standalone="no"?><!DOCTYPE svg PUBLIC "-//W3C//DTD SVG 1.1//EN" "http://www.w3.org/Graphics/SVG/1.1/DTD/svg11.dtd"><svg width="100%" height="100%" viewBox="0 0 32 32" version="1.1" xmlns="http://www.w3.org/2000/svg" xmlns:xlink="http://www.w3.org/1999/xlink" xml:space="preserve" xmlns:serif="http://www.serif.com/" style="fill-rule:evenodd;clip-rule:evenodd;stroke-linejoin:round;stroke-miterlimit:2;"><path d="M18.194,11.171c0.082,0.208 0.253,0.369 0.465,0.438c1.794,0.585 3.272,1.873 4.108,3.537c0.101,0.2 0.285,0.345 0.503,0.395c0.516,0.117 1.052,0.18 1.603,0.18c2.224,-0 4.213,-1.014 5.551,-2.588c0.009,-0.011 0.017,-0.021 0.026,-0.032c0.355,-0.466 0.399,-1.099 0.112,-1.61c-0.287,-0.511 -0.85,-0.803 -1.433,-0.743c-0.001,0 -0.002,0 -0.004,0c-0.194,0.021 -0.391,0.032 -0.59,0.032c-3.007,0 -5.447,-2.441 -5.447,-5.447c-0,-0.448 0.053,-0.884 0.133,-1.306c0.129,-0.567 -0.079,-1.141 -0.529,-1.483c-0.457,-0.347 -1.076,-0.391 -1.577,-0.11c-0.01,0.005 -0.02,0.011 -0.03,0.018c-2.033,1.267 -3.387,3.523 -3.387,6.093c-0,0.927 0.176,1.813 0.496,2.626Z" style="fill:url(#_Linear1);"/><path d="M9.269,13.74l-0.029,-0c-4.41,-0 -7.99,3.58 -7.99,7.99c0,2.943 1.555,7.991 7.511,7.991c15.447,-0 15.447,-0 15.447,-0c2.132,-0 3.759,-0.752 4.861,-1.936c1.099,-1.18 1.681,-2.806 1.681,-4.607c-0,0 -0,0 -0,0c-0,-3.394 -2.585,-6.185 -5.895,-6.51c-0.76,-3.931 -4.223,-6.903 -8.374,-6.903c-3.033,-0 -5.699,1.586 -7.212,3.975Z" style="fill:url(#_Linear2);"/><path d="M18.421,23.75c-0.317,0.171 -0.68,0.268 -1.065,0.268c-1.242,-0 -2.25,-1.009 -2.25,-2.25c-0,-1.242 1.008,-2.25 2.25,-2.25c0.385,-0 0.748,0.096 1.065,0.267c0.364,0.197 0.82,0.061 1.016,-0.304c0.197,-0.364 0.06,-0.819 -0.304,-1.016c-0.529,-0.285 -1.134,-0.447 -1.777,-0.447c-2.07,-0 -3.75,1.68 -3.75,3.75c-0,2.069 1.68,3.75 3.75,3.75c0.643,-0 1.248,-0.163 1.777,-0.448c0.364,-0.197 0.501,-0.652 0.304,-1.016c-0.196,-0.365 -0.652,-0.501 -1.016,-0.304Z" style="fill:url(#_Linear3);"/><circle cx="12.527" cy="18.924" r="0.75" style="fill:url(#_Linear4);"/><defs><linearGradient id="_Linear1" x1="0" y1="0" x2="1" y2="0" gradientUnits="userSpaceOnUse" gradientTransform="matrix(-4.73289,6.66825,-6.66825,-4.73289,23,11)"><stop offset="0" style="stop-color:#fcb64d;stop-opacity:1"/><stop offset="1" style="stop-color:#d47f00;stop-opacity:1"/></linearGradient><linearGradient id="_Linear2" x1="0" y1="0" x2="1" y2="0" gradientUnits="userSpaceOnUse" gradientTransform="matrix(1.94875e-15,31.8256,-31.8256,1.94875e-15,15.25,23.3444)"><stop offset="0" style="stop-color:#e2f4fd;stop-opacity:1"/><stop offset="1" style="stop-color:#4dc4ff;stop-opacity:1"/></linearGradient><linearGradient id="_Linear3" x1="0" y1="0" x2="1" y2="0" gradientUnits="userSpaceOnUse" gradientTransform="matrix(6.13634e-16,10.0214,-10.0214,6.13634e-16,17,22.5)"><stop offset="0" style="stop-color:#56c2ef;stop-opacity:1"/><stop offset="1" style="stop-color:#0094d1;stop-opacity:1"/></linearGradient><linearGradient id="_Linear4" x1="0" y1="0" x2="1" y2="0" gradientUnits="userSpaceOnUse" gradientTransform="matrix(6.13634e-16,10.0214,-10.0214,6.13634e-16,17,22.5)"><stop offset="0" style="stop-color:#56c2ef;stop-opacity:1"/><stop offset="1" style="stop-color:#0094d1;stop-opacity:1"/></linearGradient></defs></svg>