<?xml version="1.0" encoding="UTF-8" standalone="no"?><!DOCTYPE svg PUBLIC "-//W3C//DTD SVG 1.1//EN" "http://www.w3.org/Graphics/SVG/1.1/DTD/svg11.dtd"><svg width="100%" height="100%" viewBox="0 0 32 32" version="1.1" xmlns="http://www.w3.org/2000/svg" xmlns:xlink="http://www.w3.org/1999/xlink" xml:space="preserve" xmlns:serif="http://www.serif.com/" style="fill-rule:evenodd;clip-rule:evenodd;stroke-linejoin:round;stroke-miterlimit:2;"><circle cx="15.909" cy="16.229" r="12.364" style="fill:url(#_Linear1);"/><circle cx="14.393" cy="10.413" r="2.672" style="fill:url(#_Linear2);"/><path d="M3.902,14.521c-0.172,0.127 -0.281,0.321 -0.301,0.533c-0.037,0.387 -0.055,0.778 -0.055,1.175c-0,3.943 1.849,7.458 4.728,9.722c0.168,0.132 0.384,0.186 0.594,0.149c3.034,-0.534 5.342,-3.185 5.342,-6.371c0,-3.571 -2.899,-6.47 -6.47,-6.47c-1.436,-0 -2.764,0.469 -3.838,1.262Z" style="fill:url(#_Linear3);"/><circle cx="18.079" cy="19.271" r="3.018" style="fill:url(#_Linear4);"/><path d="M20.996,4.959c-0.23,-0.105 -0.497,-0.086 -0.711,0.049c-1.397,0.886 -2.324,2.446 -2.324,4.221c-0,2.756 2.237,4.994 4.994,4.994c1.763,-0 3.314,-0.916 4.203,-2.297c0.136,-0.213 0.157,-0.48 0.054,-0.711c-1.232,-2.771 -3.454,-5.007 -6.216,-6.256Z" style="fill:url(#_Linear5);"/><path d="M23.857,25.178c0.268,0.088 0.564,0.019 0.764,-0.18c1.032,-1.025 1.884,-2.23 2.504,-3.565c0.119,-0.256 0.084,-0.557 -0.09,-0.78c-0.529,-0.672 -1.35,-1.103 -2.27,-1.103c-1.594,-0 -2.887,1.293 -2.887,2.887c-0,1.276 0.83,2.36 1.979,2.741Z" style="fill:url(#_Linear6);"/><circle cx="27.216" cy="3.871" r="2.389" style="fill:url(#_Linear7);"/><circle cx="3.734" cy="4.819" r="2.389" style="fill:url(#_Linear8);"/><circle cx="5.373" cy="28.395" r="2.122" style="fill:url(#_Linear9);"/><path d="M28.643,25.469l-1.793,3.104c-0.207,0.359 -0.084,0.818 0.275,1.025c0.358,0.207 0.817,0.084 1.024,-0.275l1.793,-3.104c0.207,-0.358 0.084,-0.818 -0.275,-1.024c-0.358,-0.207 -0.817,-0.084 -1.024,0.274Z" style="fill:url(#_Linear10);"/><path d="M26.469,27.15l3.104,1.792c0.359,0.207 0.818,0.084 1.025,-0.275c0.207,-0.358 0.084,-0.817 -0.275,-1.024l-3.104,-1.792c-0.359,-0.207 -0.818,-0.084 -1.025,0.274c-0.207,0.359 -0.084,0.818 0.275,1.025Z" style="fill:url(#_Linear11);"/><defs><linearGradient id="_Linear1" x1="0" y1="0" x2="1" y2="0" gradientUnits="userSpaceOnUse" gradientTransform="matrix(1.8982e-15,31,-31,1.8982e-15,15.2393,21.5)"><stop offset="0" style="stop-color:#eef6ff;stop-opacity:1"/><stop offset="1" style="stop-color:#58a7ff;stop-opacity:1"/></linearGradient><linearGradient id="_Linear2" x1="0" y1="0" x2="1" y2="0" gradientUnits="userSpaceOnUse" gradientTransform="matrix(7.22299e-16,11.796,-11.796,7.22299e-16,15.061,11.204)"><stop offset="0" style="stop-color:#ced8ee;stop-opacity:1"/><stop offset="1" style="stop-color:#4c7ce4;stop-opacity:1"/></linearGradient><linearGradient id="_Linear3" x1="0" y1="0" x2="1" y2="0" gradientUnits="userSpaceOnUse" gradientTransform="matrix(-14.2951,14.2951,-14.2951,-14.2951,8.59708,19.0219)"><stop offset="0" style="stop-color:#6d6daa;stop-opacity:1"/><stop offset="1" style="stop-color:#2a2a82;stop-opacity:1"/></linearGradient><linearGradient id="_Linear4" x1="0" y1="0" x2="1" y2="0" gradientUnits="userSpaceOnUse" gradientTransform="matrix(1.12146e-15,18.3148,-18.3148,1.12146e-15,19,19.6852)"><stop offset="0" style="stop-color:#ced8ee;stop-opacity:1"/><stop offset="1" style="stop-color:#4b70c3;stop-opacity:1"/></linearGradient><linearGradient id="_Linear5" x1="0" y1="0" x2="1" y2="0" gradientUnits="userSpaceOnUse" gradientTransform="matrix(9.12234,-9.38156,9.38156,9.12234,21.8777,10)"><stop offset="0" style="stop-color:#6d6daa;stop-opacity:1"/><stop offset="1" style="stop-color:#2a2a82;stop-opacity:1"/></linearGradient><linearGradient id="_Linear6" x1="0" y1="0" x2="1" y2="0" gradientUnits="userSpaceOnUse" gradientTransform="matrix(12.75,10.1072,-10.1072,12.75,24.25,22.3826)"><stop offset="0" style="stop-color:#6d6daa;stop-opacity:1"/><stop offset="1" style="stop-color:#2a2a82;stop-opacity:1"/></linearGradient><linearGradient id="_Linear7" x1="0" y1="0" x2="1" y2="0" gradientUnits="userSpaceOnUse" gradientTransform="matrix(-19.3166,1.34939,-1.34939,-19.3166,27.7288,3.54244)"><stop offset="0" style="stop-color:#6d6daa;stop-opacity:1"/><stop offset="1" style="stop-color:#2a2a82;stop-opacity:1"/></linearGradient><linearGradient id="_Linear8" x1="0" y1="0" x2="1" y2="0" gradientUnits="userSpaceOnUse" gradientTransform="matrix(4.45445,9.31507,-9.31507,4.45445,3.54555,4.89183)"><stop offset="0" style="stop-color:#6d6daa;stop-opacity:1"/><stop offset="1" style="stop-color:#2a2a82;stop-opacity:1"/></linearGradient><linearGradient id="_Linear9" x1="0" y1="0" x2="1" y2="0" gradientUnits="userSpaceOnUse" gradientTransform="matrix(-4.00456,5.26264,-5.26264,-4.00456,5.37311,28.7374)"><stop offset="0" style="stop-color:#6d6daa;stop-opacity:1"/><stop offset="1" style="stop-color:#2a2a82;stop-opacity:1"/></linearGradient><linearGradient id="_Linear10" x1="0" y1="0" x2="1" y2="0" gradientUnits="userSpaceOnUse" gradientTransform="matrix(2.30213,8.038,-8.038,2.30213,28.396,27.3961)"><stop offset="0" style="stop-color:#6d6daa;stop-opacity:1"/><stop offset="1" style="stop-color:#2a2a82;stop-opacity:1"/></linearGradient><linearGradient id="_Linear11" x1="0" y1="0" x2="1" y2="0" gradientUnits="userSpaceOnUse" gradientTransform="matrix(2.30213,8.038,-8.038,2.30213,28.396,27.3961)"><stop offset="0" style="stop-color:#6d6daa;stop-opacity:1"/><stop offset="1" style="stop-color:#2a2a82;stop-opacity:1"/></linearGradient></defs></svg>