<?xml version="1.0" encoding="UTF-8" standalone="no"?><!DOCTYPE svg PUBLIC "-//W3C//DTD SVG 1.1//EN" "http://www.w3.org/Graphics/SVG/1.1/DTD/svg11.dtd"><svg width="100%" height="100%" viewBox="0 0 32 32" version="1.1" xmlns="http://www.w3.org/2000/svg" xmlns:xlink="http://www.w3.org/1999/xlink" xml:space="preserve" xmlns:serif="http://www.serif.com/" style="fill-rule:evenodd;clip-rule:evenodd;stroke-linejoin:round;stroke-miterlimit:2;"><path d="M29.25,4.026c-0,0.323 -0.128,0.632 -0.356,0.86c-0.228,0.228 -0.538,0.356 -0.86,0.356l-8.781,0c-0.414,0 -0.75,0.337 -0.75,0.75c-0,0.414 0.336,0.75 0.75,0.75c-0,0 6.174,0 8.781,0c0.72,0 1.411,-0.286 1.92,-0.795c0.51,-0.509 0.796,-1.2 0.796,-1.921c-0,-0.72 -0.286,-1.411 -0.796,-1.92c-0.509,-0.509 -1.2,-0.796 -1.92,-0.796c-0.414,0 -0.75,0.337 -0.75,0.75c-0,0.414 0.336,0.75 0.75,0.75c0.322,0 0.632,0.129 0.86,0.357c0.228,0.228 0.356,0.537 0.356,0.859Z" style="fill:url(#_Linear1);"/><path d="M3.966,4.674c-0.72,0 -1.411,0.286 -1.92,0.796c-0.51,0.509 -0.796,1.2 -0.796,1.92c0,0 0,0.414 0,0c0,0.721 0.286,1.411 0.796,1.921c0.509,0.509 1.2,0.795 1.92,0.795c2.607,0 8.781,0 8.781,0c0.414,0 0.75,-0.336 0.75,-0.75c0,-0.414 -0.336,-0.75 -0.75,-0.75c0,0 -6.174,0 -8.781,0c-0.322,0 -0.632,-0.128 -0.86,-0.356c-0.228,-0.228 -0.356,-0.537 -0.356,-0.86c0,0.414 0,0 0,0c0,-0.322 0.128,-0.632 0.356,-0.86c0.228,-0.228 0.538,-0.356 0.86,-0.356c0.414,0 0.75,-0.336 0.75,-0.75c0,-0.414 -0.336,-0.75 -0.75,-0.75Z" style="fill:url(#_Linear2);"/><path d="M23.692,1.31c-1.677,0 -6.327,0 -6.327,0c-0.414,0 -0.75,0.337 -0.75,0.75c0,0.414 0.336,0.75 0.75,0.75c0,0 4.65,0 6.327,0c0.414,0 0.75,-0.336 0.75,-0.75c0,-0.413 -0.336,-0.75 -0.75,-0.75Z" style="fill:url(#_Linear3);"/><path d="M8.308,6.174c1.677,0 6.327,0 6.327,0c0.414,0 0.75,-0.336 0.75,-0.75c-0,-0.414 -0.336,-0.75 -0.75,-0.75c-0,0 -4.65,0 -6.327,0c-0.414,0 -0.75,0.336 -0.75,0.75c-0,0.414 0.336,0.75 0.75,0.75Z" style="fill:url(#_Linear4);"/><path d="M24.826,13.372c0,0.136 -0.054,0.267 -0.15,0.363c-0.097,0.097 -0.228,0.151 -0.364,0.151l-6.327,0c-0.414,0 -0.75,0.336 -0.75,0.75c-0,0.414 0.336,0.75 0.75,0.75c-0,0 4.65,0 6.327,0c0.534,0 1.047,-0.212 1.424,-0.59c0.378,-0.378 0.59,-0.89 0.59,-1.424c0,-0.535 -0.212,-1.047 -0.59,-1.425c-0.377,-0.378 -0.89,-0.59 -1.424,-0.59c-0.414,-0 -0.75,0.336 -0.75,0.75c-0,0.414 0.336,0.75 0.75,0.75c0.136,-0 0.267,0.054 0.364,0.151c0.096,0.096 0.15,0.227 0.15,0.364Z" style="fill:url(#_Linear5);"/><path d="M28.275,8.506l-12.629,0c-0.414,0 -0.75,0.336 -0.75,0.75c-0,0.414 0.336,0.75 0.75,0.75l12.629,0c0.414,0 0.75,-0.336 0.75,-0.75c0,-0.414 -0.336,-0.75 -0.75,-0.75Z" style="fill:url(#_Linear6);"/><path d="M3.725,13.37l12.629,-0c0.414,-0 0.75,-0.336 0.75,-0.75c0,-0.414 -0.336,-0.75 -0.75,-0.75l-12.629,-0c-0.414,-0 -0.75,0.336 -0.75,0.75c-0,0.414 0.336,0.75 0.75,0.75Z" style="fill:url(#_Linear7);"/><path d="M5.846,16.413c-2.551,0.087 -4.596,2.186 -4.596,4.759c0,1.758 0.939,4.763 4.497,4.763c8.56,-0 8.56,-0 8.56,-0c0.11,-0 0.217,-0.003 0.323,-0.01c0.337,-0.022 0.619,-0.266 0.687,-0.598c0.251,-1.22 1.185,-2.193 2.384,-2.5c0.324,-0.083 0.554,-0.37 0.564,-0.704l0.002,-0.148c0,-1.971 -1.44,-3.606 -3.325,-3.909c-0.54,-2.214 -2.538,-3.859 -4.917,-3.859c-1.734,-0 -3.266,0.874 -4.179,2.206Z" style="fill:url(#_Linear8);"/><path d="M18.346,21.228c-2.551,0.087 -4.596,2.186 -4.596,4.759c0,1.758 0.939,4.763 4.497,4.763c8.56,-0 8.56,0 8.56,-0c1.29,-0 2.272,-0.463 2.939,-1.179c0.664,-0.713 1.021,-1.693 1.021,-2.781c0,-0 0,-0 0,-0c0,-1.971 -1.44,-3.606 -3.325,-3.909c-0.54,-2.214 -2.538,-3.859 -4.917,-3.859c-1.734,-0 -3.266,0.874 -4.179,2.206Z" style="fill:url(#_Linear9);"/><defs><linearGradient id="_Linear1" x1="0" y1="0" x2="1" y2="0" gradientUnits="userSpaceOnUse" gradientTransform="matrix(1.61934e-15,26.4458,-26.4458,1.61934e-15,17.4002,10)"><stop offset="0" style="stop-color:#6dbeff;stop-opacity:1"/><stop offset="1" style="stop-color:#0085f0;stop-opacity:1"/></linearGradient><linearGradient id="_Linear2" x1="0" y1="0" x2="1" y2="0" gradientUnits="userSpaceOnUse" gradientTransform="matrix(1.61934e-15,26.4458,-26.4458,1.61934e-15,17.4002,10)"><stop offset="0" style="stop-color:#6dbeff;stop-opacity:1"/><stop offset="1" style="stop-color:#0085f0;stop-opacity:1"/></linearGradient><linearGradient id="_Linear3" x1="0" y1="0" x2="1" y2="0" gradientUnits="userSpaceOnUse" gradientTransform="matrix(1.61934e-15,26.4458,-26.4458,1.61934e-15,17.4002,10)"><stop offset="0" style="stop-color:#6dbeff;stop-opacity:1"/><stop offset="1" style="stop-color:#0085f0;stop-opacity:1"/></linearGradient><linearGradient id="_Linear4" x1="0" y1="0" x2="1" y2="0" gradientUnits="userSpaceOnUse" gradientTransform="matrix(1.61934e-15,26.4458,-26.4458,1.61934e-15,17.4002,10)"><stop offset="0" style="stop-color:#6dbeff;stop-opacity:1"/><stop offset="1" style="stop-color:#0085f0;stop-opacity:1"/></linearGradient><linearGradient id="_Linear5" x1="0" y1="0" x2="1" y2="0" gradientUnits="userSpaceOnUse" gradientTransform="matrix(1.61934e-15,26.4458,-26.4458,1.61934e-15,17.4002,10)"><stop offset="0" style="stop-color:#6dbeff;stop-opacity:1"/><stop offset="1" style="stop-color:#0085f0;stop-opacity:1"/></linearGradient><linearGradient id="_Linear6" x1="0" y1="0" x2="1" y2="0" gradientUnits="userSpaceOnUse" gradientTransform="matrix(1.61934e-15,26.4458,-26.4458,1.61934e-15,17.4002,10)"><stop offset="0" style="stop-color:#6dbeff;stop-opacity:1"/><stop offset="1" style="stop-color:#0085f0;stop-opacity:1"/></linearGradient><linearGradient id="_Linear7" x1="0" y1="0" x2="1" y2="0" gradientUnits="userSpaceOnUse" gradientTransform="matrix(1.61934e-15,26.4458,-26.4458,1.61934e-15,17.4002,10)"><stop offset="0" style="stop-color:#6dbeff;stop-opacity:1"/><stop offset="1" style="stop-color:#0085f0;stop-opacity:1"/></linearGradient><linearGradient id="_Linear8" x1="0" y1="0" x2="1" y2="0" gradientUnits="userSpaceOnUse" gradientTransform="matrix(8.57253e-16,14,-14,8.57253e-16,9.5,22)"><stop offset="0" style="stop-color:#e2f4fd;stop-opacity:1"/><stop offset="1" style="stop-color:#4dc4ff;stop-opacity:1"/></linearGradient><linearGradient id="_Linear9" x1="0" y1="0" x2="1" y2="0" gradientUnits="userSpaceOnUse" gradientTransform="matrix(7.9602e-16,13,-13,7.9602e-16,22.6268,25.5)"><stop offset="0" style="stop-color:#e2f4fd;stop-opacity:1"/><stop offset="1" style="stop-color:#4dc4ff;stop-opacity:1"/></linearGradient></defs></svg>