<?xml version="1.0" encoding="UTF-8" standalone="no"?><!DOCTYPE svg PUBLIC "-//W3C//DTD SVG 1.1//EN" "http://www.w3.org/Graphics/SVG/1.1/DTD/svg11.dtd"><svg width="100%" height="100%" viewBox="0 0 32 32" version="1.1" xmlns="http://www.w3.org/2000/svg" xmlns:xlink="http://www.w3.org/1999/xlink" xml:space="preserve" xmlns:serif="http://www.serif.com/" style="fill-rule:evenodd;clip-rule:evenodd;stroke-linejoin:round;stroke-miterlimit:2;"><path d="M20.004,1.993l-0,1.507c-0,0.414 0.336,0.75 0.75,0.75c0.414,-0 0.75,-0.336 0.75,-0.75l-0,-1.507c-0,-0.414 -0.336,-0.75 -0.75,-0.75c-0.414,-0 -0.75,0.336 -0.75,0.75Z" style="fill:url(#_Linear1);"/><path d="M26.767,4.173l-1.067,1.066c-0.293,0.293 -0.293,0.768 -0,1.061c0.293,0.293 0.768,0.293 1.061,0l1.066,-1.067c0.293,-0.292 0.293,-0.768 0,-1.06c-0.292,-0.293 -0.768,-0.293 -1.06,-0Z" style="fill:url(#_Linear2);"/><path d="M30.007,10.496l-1.507,0c-0.414,0 -0.75,0.336 -0.75,0.75c-0,0.414 0.336,0.75 0.75,0.75l1.507,0c0.414,0 0.75,-0.336 0.75,-0.75c0,-0.414 -0.336,-0.75 -0.75,-0.75Z" style="fill:url(#_Linear3);"/><path d="M13.68,5.233l1.067,1.067c0.292,0.293 0.768,0.293 1.06,0c0.293,-0.293 0.293,-0.768 0,-1.061l-1.066,-1.066c-0.293,-0.293 -0.768,-0.293 -1.061,-0c-0.293,0.292 -0.293,0.768 0,1.06Z" style="fill:url(#_Linear4);"/><path d="M14.722,11.654c0.013,0.207 0.111,0.4 0.271,0.533c0.16,0.132 0.368,0.193 0.574,0.166c0.3,-0.039 0.604,-0.059 0.914,-0.059c2.752,-0 5.137,1.585 6.291,3.892c0.093,0.186 0.26,0.325 0.459,0.384c0.2,0.058 0.415,0.032 0.594,-0.074c1.778,-1.052 2.971,-2.99 2.971,-5.204c-0,-3.335 -2.708,-6.042 -6.042,-6.042c-3.335,-0 -6.043,2.707 -6.043,6.042c0,0.121 0.004,0.242 0.011,0.362Z" style="fill:url(#_Linear5);"/><path d="M9.269,14.769l-0.029,0c-4.41,0 -7.99,3.58 -7.99,7.991c0,2.943 1.555,7.99 7.511,7.99c15.447,-0 15.447,0 15.447,-0c2.132,-0 3.759,-0.752 4.861,-1.935c1.099,-1.181 1.681,-2.806 1.681,-4.607c-0,-0 -0,-0 -0,-0c-0,-3.395 -2.585,-6.186 -5.895,-6.511c-0.76,-3.931 -4.223,-6.903 -8.374,-6.903c-3.033,-0 -5.699,1.586 -7.212,3.975Z" style="fill:url(#_Linear6);"/><path d="M21.011,21.309c-0,0.166 -0.066,0.324 -0.183,0.441c-0.116,0.117 -0.275,0.182 -0.44,0.182l-6.131,0c-0.414,0 -0.75,0.336 -0.75,0.75c0,0.414 0.336,0.75 0.75,0.75c0,0 4.311,0 6.131,0c0.563,0 1.103,-0.224 1.501,-0.622c0.398,-0.398 0.622,-0.938 0.622,-1.501c-0,-0.562 -0.224,-1.102 -0.622,-1.5c-0.398,-0.399 -0.938,-0.622 -1.501,-0.622c-0.414,-0 -0.75,0.336 -0.75,0.75c0,0.414 0.336,0.75 0.75,0.75c0.165,-0 0.324,0.065 0.44,0.182c0.117,0.117 0.183,0.275 0.183,0.44Z" style="fill:url(#_Linear7);"/><path d="M16.148,19.187c-1.566,-0 -5.909,-0 -5.909,-0c-0.414,-0 -0.75,0.336 -0.75,0.75c0,0.414 0.336,0.75 0.75,0.75c0,-0 4.343,-0 5.909,-0c0.414,-0 0.75,-0.336 0.75,-0.75c0,-0.414 -0.336,-0.75 -0.75,-0.75Z" style="fill:url(#_Linear8);"/><path d="M18.739,24.907l-7,-0c-0.414,-0 -0.75,0.336 -0.75,0.75c0,0.414 0.336,0.75 0.75,0.75l7,-0c0.414,-0 0.75,-0.336 0.75,-0.75c0,-0.414 -0.336,-0.75 -0.75,-0.75Z" style="fill:url(#_Linear9);"/><defs><linearGradient id="_Linear1" x1="0" y1="0" x2="1" y2="0" gradientUnits="userSpaceOnUse" gradientTransform="matrix(5.04942e-16,8.24633,-8.24633,5.04942e-16,20.7537,3)"><stop offset="0" style="stop-color:#fcd935;stop-opacity:1"/><stop offset="1" style="stop-color:#c19f00;stop-opacity:1"/></linearGradient><linearGradient id="_Linear2" x1="0" y1="0" x2="1" y2="0" gradientUnits="userSpaceOnUse" gradientTransform="matrix(-6.5496,6.5496,-6.5496,-6.5496,27,5)"><stop offset="0" style="stop-color:#fcd935;stop-opacity:1"/><stop offset="1" style="stop-color:#c19f00;stop-opacity:1"/></linearGradient><linearGradient id="_Linear3" x1="0" y1="0" x2="1" y2="0" gradientUnits="userSpaceOnUse" gradientTransform="matrix(-7.50573,9.19187e-16,-9.19187e-16,-7.50573,29.5057,11.2463)"><stop offset="0" style="stop-color:#fcd935;stop-opacity:1"/><stop offset="1" style="stop-color:#c19f00;stop-opacity:1"/></linearGradient><linearGradient id="_Linear4" x1="0" y1="0" x2="1" y2="0" gradientUnits="userSpaceOnUse" gradientTransform="matrix(3.93903,3.93903,-3.93903,3.93903,15.061,5.25)"><stop offset="0" style="stop-color:#fcd935;stop-opacity:1"/><stop offset="1" style="stop-color:#c19f00;stop-opacity:1"/></linearGradient><linearGradient id="_Linear5" x1="0" y1="0" x2="1" y2="0" gradientUnits="userSpaceOnUse" gradientTransform="matrix(-3.87081,9.37492,-9.37492,-3.87081,21.0977,10.1251)"><stop offset="0" style="stop-color:#fcd935;stop-opacity:1"/><stop offset="1" style="stop-color:#c19f00;stop-opacity:1"/></linearGradient><linearGradient id="_Linear6" x1="0" y1="0" x2="1" y2="0" gradientUnits="userSpaceOnUse" gradientTransform="matrix(2.18547e-15,35.6914,-35.6914,2.18547e-15,13.1936,24.7336)"><stop offset="0" style="stop-color:#e2f4fd;stop-opacity:1"/><stop offset="1" style="stop-color:#4dc4ff;stop-opacity:1"/></linearGradient><linearGradient id="_Linear7" x1="0" y1="0" x2="1" y2="0" gradientUnits="userSpaceOnUse" gradientTransform="matrix(1.19187e-15,19.4648,-19.4648,1.19187e-15,15.8256,22.5352)"><stop offset="0" style="stop-color:#56c2ef;stop-opacity:1"/><stop offset="1" style="stop-color:#0094d1;stop-opacity:1"/></linearGradient><linearGradient id="_Linear8" x1="0" y1="0" x2="1" y2="0" gradientUnits="userSpaceOnUse" gradientTransform="matrix(1.19187e-15,19.4648,-19.4648,1.19187e-15,15.8256,22.5352)"><stop offset="0" style="stop-color:#56c2ef;stop-opacity:1"/><stop offset="1" style="stop-color:#0094d1;stop-opacity:1"/></linearGradient><linearGradient id="_Linear9" x1="0" y1="0" x2="1" y2="0" gradientUnits="userSpaceOnUse" gradientTransform="matrix(1.19187e-15,19.4648,-19.4648,1.19187e-15,15.8256,22.5352)"><stop offset="0" style="stop-color:#56c2ef;stop-opacity:1"/><stop offset="1" style="stop-color:#0094d1;stop-opacity:1"/></linearGradient></defs></svg>